M48
; DRILL file {KiCad 8.0.9} date 2025-03-13T22:53:32+0800
; FORMAT={-:-/ absolute / inch / decimal}
; #@! TF.CreationDate,2025-03-13T22:53:32+08:00
; #@! TF.GenerationSoftware,Kicad,Pcbnew,8.0.9
; #@! TF.FileFunction,Plated,1,4,PTH
FMAT,2
INCH
; #@! TA.AperFunction,Plated,PTH,ViaDrill
T1C0.0118
; #@! TA.AperFunction,Plated,PTH,ComponentDrill
T2C0.0866
; #@! TA.AperFunction,Plated,PTH,ComponentDrill
T3C0.1260
%
G90
G05
T1
X4.813Y-4.5535
X4.9439Y-4.2697
X5.0634Y-4.6063
X5.2096Y-3.5807
X5.2303Y-4.0295
X5.2323Y-3.8642
X5.2323Y-3.9016
X5.2323Y-3.939
X5.2323Y-3.9902
X5.2323Y-4.065
X5.2677Y-4.0256
X5.2679Y-3.9313
X5.2697Y-3.8642
X5.2889Y-3.3529
X5.2992Y-4.5787
X5.313Y-3.6811
X5.3287Y-4.3091
X5.3302Y-4.0253
X5.3307Y-3.9626
X5.3307Y-4.0886
X5.3309Y-4.1205
X5.331Y-3.8998
X5.3366Y-4.2323
X5.3465Y-3.6791
X5.3642Y-4.0276
X5.378Y-4.5571
X5.3819Y-3.6791
X5.3927Y-3.9626
X5.3936Y-4.1199
X5.3937Y-3.8681
X5.3957Y-4.0866
X5.3976Y-3.9035
X5.4085Y-3.5787
X5.4173Y-4.4961
X5.425Y-4.1203
X5.4567Y-4.1201
X5.4567Y-4.4961
X5.4709Y-4.0787
X5.4961Y-4.5591
X5.5098Y-4.1972
X5.5217Y-4.1181
X5.5453Y-4.1594
X5.5507Y-3.931
X5.5512Y-3.9941
X5.5512Y-3.8681
X5.5512Y-4.0256
X5.56Y-3.5748
X5.5827Y-3.7992
X5.5827Y-3.9311
X5.5827Y-4.0256
X5.5829Y-3.8364
X5.6142Y-4.1201
X5.6142Y-4.561
X5.6181Y-4.1555
X5.6368Y-3.3473
X5.6457Y-4.0571
X5.6535Y-4.4961
X5.6772Y-4.0571
X5.6929Y-4.4961
X5.6988Y-3.8839
X5.7323Y-4.5591
X5.7589Y-3.5748
X5.7638Y-3.8091
X5.85Y-4.6063
T2
X5.0236Y-3.9783
X5.8898Y-3.9783
T3
X4.815Y-3.3366
X6.0984Y-4.6201
M30
