%TF.GenerationSoftware,KiCad,Pcbnew,8.0.9*%
%TF.CreationDate,2025-03-13T22:53:30+08:00*%
%TF.ProjectId,Raspberry_pi_IMX662,52617370-6265-4727-9279-5f70695f494d,rev?*%
%TF.SameCoordinates,Original*%
%TF.FileFunction,Paste,Bot*%
%TF.FilePolarity,Positive*%
%FSLAX46Y46*%
G04 Gerber Fmt 4.6, Leading zero omitted, Abs format (unit mm)*
G04 Created by KiCad (PCBNEW 8.0.9) date 2025-03-13 22:53:30*
%MOMM*%
%LPD*%
G01*
G04 APERTURE LIST*
G04 Aperture macros list*
%AMRoundRect*
0 Rectangle with rounded corners*
0 $1 Rounding radius*
0 $2 $3 $4 $5 $6 $7 $8 $9 X,Y pos of 4 corners*
0 Add a 4 corners polygon primitive as box body*
4,1,4,$2,$3,$4,$5,$6,$7,$8,$9,$2,$3,0*
0 Add four circle primitives for the rounded corners*
1,1,$1+$1,$2,$3*
1,1,$1+$1,$4,$5*
1,1,$1+$1,$6,$7*
1,1,$1+$1,$8,$9*
0 Add four rect primitives between the rounded corners*
20,1,$1+$1,$2,$3,$4,$5,0*
20,1,$1+$1,$4,$5,$6,$7,0*
20,1,$1+$1,$6,$7,$8,$9,0*
20,1,$1+$1,$8,$9,$2,$3,0*%
G04 Aperture macros list end*
%ADD10RoundRect,0.135000X-0.185000X0.135000X-0.185000X-0.135000X0.185000X-0.135000X0.185000X0.135000X0*%
%ADD11RoundRect,0.218750X-0.256250X0.218750X-0.256250X-0.218750X0.256250X-0.218750X0.256250X0.218750X0*%
%ADD12C,0.400000*%
G04 APERTURE END LIST*
D10*
%TO.C,R6*%
X123600000Y-115990000D03*
X123600000Y-117010000D03*
%TD*%
D11*
%TO.C,D1*%
X122250000Y-115660000D03*
X122250000Y-117235000D03*
%TD*%
D12*
%TO.C,U1*%
X133400000Y-98650000D03*
X133400000Y-99450000D03*
X133400000Y-100250000D03*
X133400000Y-101050000D03*
X133400000Y-101850000D03*
X133400000Y-102650000D03*
X133400000Y-103450000D03*
X134200000Y-98650000D03*
X134200000Y-99450000D03*
X134200000Y-100250000D03*
X134200000Y-101050000D03*
X134200000Y-101850000D03*
X134200000Y-102650000D03*
X134200000Y-103450000D03*
X135000000Y-97050000D03*
X135000000Y-97850000D03*
X135000000Y-98650000D03*
X135000000Y-99450000D03*
X135000000Y-100250000D03*
X135000000Y-101050000D03*
X135000000Y-101850000D03*
X135000000Y-102650000D03*
X135000000Y-103450000D03*
X135000000Y-104250000D03*
X135000000Y-105050000D03*
X135800000Y-97050000D03*
X135800000Y-97850000D03*
X135800000Y-98650000D03*
X135800000Y-99450000D03*
X135800000Y-100250000D03*
X135800000Y-101050000D03*
X135800000Y-101850000D03*
X135800000Y-102650000D03*
X135800000Y-103450000D03*
X135800000Y-104250000D03*
X135800000Y-105050000D03*
X136600000Y-97050000D03*
X136600000Y-97850000D03*
X136600000Y-98650000D03*
X136600000Y-99450000D03*
X136600000Y-100250000D03*
X136600000Y-101050000D03*
X136600000Y-101850000D03*
X136600000Y-102650000D03*
X136600000Y-103450000D03*
X136600000Y-104250000D03*
X136600000Y-105050000D03*
X137400000Y-97050000D03*
X137400000Y-97850000D03*
X137400000Y-104250000D03*
X137400000Y-105050000D03*
X138200000Y-97050000D03*
X138200000Y-97850000D03*
X138200000Y-104250000D03*
X138200000Y-105050000D03*
X139000000Y-97050000D03*
X139000000Y-97850000D03*
X139000000Y-104250000D03*
X139000000Y-105050000D03*
X139800000Y-97050000D03*
X139800000Y-97850000D03*
X139800000Y-104250000D03*
X139800000Y-105050000D03*
X140600000Y-97050000D03*
X140600000Y-97850000D03*
X140600000Y-98650000D03*
X140600000Y-99450000D03*
X140600000Y-100250000D03*
X140600000Y-101050000D03*
X140600000Y-101850000D03*
X140600000Y-102650000D03*
X140600000Y-103450000D03*
X140600000Y-104250000D03*
X140600000Y-105050000D03*
X141400000Y-97050000D03*
X141400000Y-97850000D03*
X141400000Y-98650000D03*
X141400000Y-99450000D03*
X141400000Y-100250000D03*
X141400000Y-101050000D03*
X141400000Y-101850000D03*
X141400000Y-102650000D03*
X141400000Y-103450000D03*
X141400000Y-104250000D03*
X141400000Y-105050000D03*
X142200000Y-97050000D03*
X142200000Y-97850000D03*
X142200000Y-98650000D03*
X142200000Y-99450000D03*
X142200000Y-100250000D03*
X142200000Y-101050000D03*
X142200000Y-101850000D03*
X142200000Y-102650000D03*
X142200000Y-103450000D03*
X142200000Y-104250000D03*
X142200000Y-105050000D03*
X143000000Y-98650000D03*
X143000000Y-99450000D03*
X143000000Y-100250000D03*
X143000000Y-101050000D03*
X143000000Y-101850000D03*
X143000000Y-102650000D03*
X143000000Y-103450000D03*
X143800000Y-98650000D03*
X143800000Y-99450000D03*
X143800000Y-100250000D03*
X143800000Y-101050000D03*
X143800000Y-101850000D03*
X143800000Y-102650000D03*
X143800000Y-103450000D03*
%TD*%
M02*
