%TF.GenerationSoftware,KiCad,Pcbnew,8.0.9*%
%TF.CreationDate,2025-03-13T22:53:30+08:00*%
%TF.ProjectId,Raspberry_pi_IMX662,52617370-6265-4727-9279-5f70695f494d,rev?*%
%TF.SameCoordinates,Original*%
%TF.FileFunction,Copper,L1,Top*%
%TF.FilePolarity,Positive*%
%FSLAX46Y46*%
G04 Gerber Fmt 4.6, Leading zero omitted, Abs format (unit mm)*
G04 Created by KiCad (PCBNEW 8.0.9) date 2025-03-13 22:53:30*
%MOMM*%
%LPD*%
G01*
G04 APERTURE LIST*
G04 Aperture macros list*
%AMRoundRect*
0 Rectangle with rounded corners*
0 $1 Rounding radius*
0 $2 $3 $4 $5 $6 $7 $8 $9 X,Y pos of 4 corners*
0 Add a 4 corners polygon primitive as box body*
4,1,4,$2,$3,$4,$5,$6,$7,$8,$9,$2,$3,0*
0 Add four circle primitives for the rounded corners*
1,1,$1+$1,$2,$3*
1,1,$1+$1,$4,$5*
1,1,$1+$1,$6,$7*
1,1,$1+$1,$8,$9*
0 Add four rect primitives between the rounded corners*
20,1,$1+$1,$2,$3,$4,$5,0*
20,1,$1+$1,$4,$5,$6,$7,0*
20,1,$1+$1,$6,$7,$8,$9,0*
20,1,$1+$1,$8,$9,$2,$3,0*%
G04 Aperture macros list end*
%TA.AperFunction,SMDPad,CuDef*%
%ADD10RoundRect,0.218750X-0.381250X0.218750X-0.381250X-0.218750X0.381250X-0.218750X0.381250X0.218750X0*%
%TD*%
%TA.AperFunction,SMDPad,CuDef*%
%ADD11RoundRect,0.140000X-0.140000X-0.170000X0.140000X-0.170000X0.140000X0.170000X-0.140000X0.170000X0*%
%TD*%
%TA.AperFunction,ComponentPad*%
%ADD12C,6.400000*%
%TD*%
%TA.AperFunction,SMDPad,CuDef*%
%ADD13RoundRect,0.140000X0.170000X-0.140000X0.170000X0.140000X-0.170000X0.140000X-0.170000X-0.140000X0*%
%TD*%
%TA.AperFunction,SMDPad,CuDef*%
%ADD14RoundRect,0.225000X-0.250000X0.225000X-0.250000X-0.225000X0.250000X-0.225000X0.250000X0.225000X0*%
%TD*%
%TA.AperFunction,SMDPad,CuDef*%
%ADD15R,0.610000X2.000000*%
%TD*%
%TA.AperFunction,SMDPad,CuDef*%
%ADD16R,2.680000X3.600000*%
%TD*%
%TA.AperFunction,SMDPad,CuDef*%
%ADD17RoundRect,0.135000X-0.135000X-0.185000X0.135000X-0.185000X0.135000X0.185000X-0.135000X0.185000X0*%
%TD*%
%TA.AperFunction,SMDPad,CuDef*%
%ADD18RoundRect,0.100000X0.637500X0.100000X-0.637500X0.100000X-0.637500X-0.100000X0.637500X-0.100000X0*%
%TD*%
%TA.AperFunction,SMDPad,CuDef*%
%ADD19RoundRect,0.135000X0.135000X0.185000X-0.135000X0.185000X-0.135000X-0.185000X0.135000X-0.185000X0*%
%TD*%
%TA.AperFunction,SMDPad,CuDef*%
%ADD20RoundRect,0.225000X-0.225000X-0.250000X0.225000X-0.250000X0.225000X0.250000X-0.225000X0.250000X0*%
%TD*%
%TA.AperFunction,SMDPad,CuDef*%
%ADD21RoundRect,0.225000X0.225000X0.250000X-0.225000X0.250000X-0.225000X-0.250000X0.225000X-0.250000X0*%
%TD*%
%TA.AperFunction,SMDPad,CuDef*%
%ADD22RoundRect,0.135000X0.185000X-0.135000X0.185000X0.135000X-0.185000X0.135000X-0.185000X-0.135000X0*%
%TD*%
%TA.AperFunction,SMDPad,CuDef*%
%ADD23RoundRect,0.140000X-0.170000X0.140000X-0.170000X-0.140000X0.170000X-0.140000X0.170000X0.140000X0*%
%TD*%
%TA.AperFunction,ComponentPad*%
%ADD24C,4.400000*%
%TD*%
%TA.AperFunction,SMDPad,CuDef*%
%ADD25R,1.100000X1.300000*%
%TD*%
%TA.AperFunction,SMDPad,CuDef*%
%ADD26RoundRect,0.225000X0.250000X-0.225000X0.250000X0.225000X-0.250000X0.225000X-0.250000X-0.225000X0*%
%TD*%
%TA.AperFunction,SMDPad,CuDef*%
%ADD27RoundRect,0.150000X-0.150000X0.512500X-0.150000X-0.512500X0.150000X-0.512500X0.150000X0.512500X0*%
%TD*%
%TA.AperFunction,SMDPad,CuDef*%
%ADD28RoundRect,0.140000X0.140000X0.170000X-0.140000X0.170000X-0.140000X-0.170000X0.140000X-0.170000X0*%
%TD*%
%TA.AperFunction,ViaPad*%
%ADD29C,0.450000*%
%TD*%
%TA.AperFunction,Conductor*%
%ADD30C,0.350000*%
%TD*%
%TA.AperFunction,Conductor*%
%ADD31C,0.200000*%
%TD*%
%TA.AperFunction,Conductor*%
%ADD32C,0.156000*%
%TD*%
%TA.AperFunction,Conductor*%
%ADD33C,0.127000*%
%TD*%
G04 APERTURE END LIST*
D10*
%TO.P,FB1,1*%
%TO.N,3V3*%
X128700000Y-107337500D03*
%TO.P,FB1,2*%
%TO.N,VCC*%
X128700000Y-109462500D03*
%TD*%
D11*
%TO.P,C17,1*%
%TO.N,3V3*%
X132870000Y-99100000D03*
%TO.P,C17,2*%
%TO.N,GND*%
X133830000Y-99100000D03*
%TD*%
%TO.P,C24,1*%
%TO.N,Net-(U1C-VRLFR)*%
X132870000Y-100050000D03*
%TO.P,C24,2*%
%TO.N,GND*%
X133830000Y-100050000D03*
%TD*%
D12*
%TO.P,H6,1,1*%
%TO.N,unconnected-(H6-Pad1)*%
X154900000Y-117350000D03*
%TD*%
D13*
%TO.P,C16,1*%
%TO.N,1V2*%
X135400000Y-104780000D03*
%TO.P,C16,2*%
%TO.N,GND*%
X135400000Y-103820000D03*
%TD*%
D14*
%TO.P,C26,1*%
%TO.N,1V8*%
X144700000Y-94775000D03*
%TO.P,C26,2*%
%TO.N,GND*%
X144700000Y-96325000D03*
%TD*%
D15*
%TO.P,J2,1,Pin_1*%
%TO.N,VCC*%
X131600000Y-114200000D03*
%TO.P,J2,2,Pin_2*%
%TO.N,SDA_3V3*%
X132600000Y-114200000D03*
%TO.P,J2,3,Pin_3*%
%TO.N,SCL_3V3*%
X133600000Y-114200000D03*
%TO.P,J2,4,Pin_4*%
%TO.N,LED*%
X134600000Y-114200000D03*
%TO.P,J2,5,Pin_5*%
%TO.N,XCLR_3V3*%
X135600000Y-114200000D03*
%TO.P,J2,6,Pin_6*%
%TO.N,GND*%
X136600000Y-114200000D03*
%TO.P,J2,7,Pin_7*%
%TO.N,DCKP*%
X137600000Y-114200000D03*
%TO.P,J2,8,Pin_8*%
%TO.N,DCKN*%
X138600000Y-114200000D03*
%TO.P,J2,9,Pin_9*%
%TO.N,GND*%
X139600000Y-114200000D03*
%TO.P,J2,10,Pin_10*%
%TO.N,DMO2P*%
X140600000Y-114200000D03*
%TO.P,J2,11,Pin_11*%
%TO.N,DMO2N*%
X141600000Y-114200000D03*
%TO.P,J2,12,Pin_12*%
%TO.N,GND*%
X142600000Y-114200000D03*
%TO.P,J2,13,Pin_13*%
%TO.N,DMO1P*%
X143600000Y-114200000D03*
%TO.P,J2,14,Pin_14*%
%TO.N,DMO1N*%
X144600000Y-114200000D03*
%TO.P,J2,15,Pin_15*%
%TO.N,GND*%
X145600000Y-114200000D03*
D16*
%TO.P,J2,MP,MountPin*%
X128610000Y-117000000D03*
X148590000Y-117000000D03*
%TD*%
D17*
%TO.P,R3,1*%
%TO.N,Net-(U1C-SLAMODE0)*%
X140840000Y-105650000D03*
%TO.P,R3,2*%
%TO.N,GND*%
X141860000Y-105650000D03*
%TD*%
D18*
%TO.P,U3,1,VCCA*%
%TO.N,1V8*%
X136562500Y-111400000D03*
%TO.P,U3,2,A1*%
%TO.N,SDA_1V8*%
X136562500Y-110750000D03*
%TO.P,U3,3,A2*%
%TO.N,SCL_1V8*%
X136562500Y-110100000D03*
%TO.P,U3,4,A3*%
%TO.N,XCLR_1V8*%
X136562500Y-109450000D03*
%TO.P,U3,5,A4*%
%TO.N,unconnected-(U3-A4-Pad5)*%
X136562500Y-108800000D03*
%TO.P,U3,6,NC*%
%TO.N,unconnected-(U3-NC-Pad6)*%
X136562500Y-108150000D03*
%TO.P,U3,7,GND*%
%TO.N,GND*%
X136562500Y-107500000D03*
%TO.P,U3,8,OE*%
%TO.N,1V8*%
X130837500Y-107500000D03*
%TO.P,U3,9,NC*%
%TO.N,unconnected-(U3-NC-Pad9)*%
X130837500Y-108150000D03*
%TO.P,U3,10,B4*%
%TO.N,unconnected-(U3-B4-Pad10)*%
X130837500Y-108800000D03*
%TO.P,U3,11,B3*%
%TO.N,XCLR_3V3*%
X130837500Y-109450000D03*
%TO.P,U3,12,B2*%
%TO.N,SCL_3V3*%
X130837500Y-110100000D03*
%TO.P,U3,13,B1*%
%TO.N,SDA_3V3*%
X130837500Y-110750000D03*
%TO.P,U3,14,VCCB*%
%TO.N,VCC*%
X130837500Y-111400000D03*
%TD*%
D19*
%TO.P,R2,1*%
%TO.N,Net-(U1C-SLAMODE1)*%
X138960000Y-103600000D03*
%TO.P,R2,2*%
%TO.N,GND*%
X137940000Y-103600000D03*
%TD*%
D11*
%TO.P,C11,1*%
%TO.N,1V2*%
X140900000Y-102150000D03*
%TO.P,C11,2*%
%TO.N,GND*%
X141860000Y-102150000D03*
%TD*%
D13*
%TO.P,C13,1*%
%TO.N,1V2*%
X142750000Y-105580000D03*
%TO.P,C13,2*%
%TO.N,GND*%
X142750000Y-104620000D03*
%TD*%
D20*
%TO.P,C30,1*%
%TO.N,1V8*%
X133225000Y-105950000D03*
%TO.P,C30,2*%
%TO.N,GND*%
X134775000Y-105950000D03*
%TD*%
D11*
%TO.P,C12,1*%
%TO.N,1V2*%
X140920000Y-99850000D03*
%TO.P,C12,2*%
%TO.N,GND*%
X141880000Y-99850000D03*
%TD*%
D21*
%TO.P,C3,1*%
%TO.N,VCC*%
X135875000Y-85150000D03*
%TO.P,C3,2*%
%TO.N,GND*%
X134325000Y-85150000D03*
%TD*%
%TO.P,C9,1*%
%TO.N,VCC*%
X127125000Y-109500000D03*
%TO.P,C9,2*%
%TO.N,GND*%
X125575000Y-109500000D03*
%TD*%
D22*
%TO.P,R1,1*%
%TO.N,Net-(U1C-XMASTER)*%
X137000000Y-104760000D03*
%TO.P,R1,2*%
%TO.N,GND*%
X137000000Y-103740000D03*
%TD*%
D23*
%TO.P,C8,1*%
%TO.N,1V8*%
X141750000Y-96470000D03*
%TO.P,C8,2*%
%TO.N,GND*%
X141750000Y-97430000D03*
%TD*%
D20*
%TO.P,C2,1*%
%TO.N,1V2*%
X135825000Y-90900000D03*
%TO.P,C2,2*%
%TO.N,GND*%
X137375000Y-90900000D03*
%TD*%
D11*
%TO.P,C19,1*%
%TO.N,3V3*%
X132870000Y-101400000D03*
%TO.P,C19,2*%
%TO.N,GND*%
X133830000Y-101400000D03*
%TD*%
%TO.P,C21,1*%
%TO.N,3V3*%
X132850000Y-102350000D03*
%TO.P,C21,2*%
%TO.N,GND*%
X133810000Y-102350000D03*
%TD*%
D23*
%TO.P,C10,1*%
%TO.N,1V8*%
X140820000Y-96470000D03*
%TO.P,C10,2*%
%TO.N,GND*%
X140820000Y-97430000D03*
%TD*%
D21*
%TO.P,C4,1*%
%TO.N,VCC*%
X144725000Y-85050000D03*
%TO.P,C4,2*%
%TO.N,GND*%
X143175000Y-85050000D03*
%TD*%
D24*
%TO.P,H2,1,1*%
%TO.N,GND*%
X127600000Y-101050000D03*
%TD*%
D22*
%TO.P,R5,1*%
%TO.N,XCLR_1V8*%
X139950000Y-106610000D03*
%TO.P,R5,2*%
%TO.N,Net-(U1C-XCLR)*%
X139950000Y-105590000D03*
%TD*%
D20*
%TO.P,C6,1*%
%TO.N,1V8*%
X144725000Y-90800000D03*
%TO.P,C6,2*%
%TO.N,GND*%
X146275000Y-90800000D03*
%TD*%
D17*
%TO.P,R4,1*%
%TO.N,Net-(U1C-XCLR)*%
X140340000Y-104550000D03*
%TO.P,R4,2*%
%TO.N,1V8*%
X141360000Y-104550000D03*
%TD*%
D24*
%TO.P,H1,1,1*%
%TO.N,GND*%
X149600000Y-101050000D03*
%TD*%
D21*
%TO.P,C5,1*%
%TO.N,Net-(U4-BP)*%
X142775000Y-90800000D03*
%TO.P,C5,2*%
%TO.N,GND*%
X141225000Y-90800000D03*
%TD*%
%TO.P,C1,1*%
%TO.N,Net-(U2-BP)*%
X133875000Y-90950000D03*
%TO.P,C1,2*%
%TO.N,GND*%
X132325000Y-90950000D03*
%TD*%
D25*
%TO.P,X1,1,OE*%
%TO.N,1V8*%
X146425000Y-94650000D03*
%TO.P,X1,2,GND*%
%TO.N,GND*%
X146425000Y-96750000D03*
%TO.P,X1,3,OUT*%
%TO.N,Net-(U1C-INCK)*%
X148075000Y-96750000D03*
%TO.P,X1,4,Vcc*%
%TO.N,1V8*%
X148075000Y-94650000D03*
%TD*%
D11*
%TO.P,C20,1*%
%TO.N,3V3*%
X132870000Y-103300000D03*
%TO.P,C20,2*%
%TO.N,GND*%
X133830000Y-103300000D03*
%TD*%
D21*
%TO.P,C7,1*%
%TO.N,3V3*%
X127125000Y-107350000D03*
%TO.P,C7,2*%
%TO.N,GND*%
X125575000Y-107350000D03*
%TD*%
D11*
%TO.P,C14,1*%
%TO.N,1V2*%
X140920000Y-101200000D03*
%TO.P,C14,2*%
%TO.N,GND*%
X141880000Y-101200000D03*
%TD*%
D26*
%TO.P,C15,1*%
%TO.N,1V2*%
X138850000Y-100425000D03*
%TO.P,C15,2*%
%TO.N,GND*%
X138850000Y-98875000D03*
%TD*%
D14*
%TO.P,C22,1*%
%TO.N,3V3*%
X131600000Y-103325000D03*
%TO.P,C22,2*%
%TO.N,GND*%
X131600000Y-104875000D03*
%TD*%
D13*
%TO.P,C29,1*%
%TO.N,1V2*%
X137150000Y-99130000D03*
%TO.P,C29,2*%
%TO.N,GND*%
X137150000Y-98170000D03*
%TD*%
D11*
%TO.P,C27,1*%
%TO.N,1V2*%
X140920000Y-103100000D03*
%TO.P,C27,2*%
%TO.N,GND*%
X141880000Y-103100000D03*
%TD*%
D27*
%TO.P,U2,1,IN*%
%TO.N,VCC*%
X135800000Y-86950000D03*
%TO.P,U2,2,GND*%
%TO.N,GND*%
X134850000Y-86950000D03*
%TO.P,U2,3,EN*%
%TO.N,VCC*%
X133900000Y-86950000D03*
%TO.P,U2,4,BP*%
%TO.N,Net-(U2-BP)*%
X133900000Y-89225000D03*
%TO.P,U2,5,OUT*%
%TO.N,1V2*%
X135800000Y-89225000D03*
%TD*%
D12*
%TO.P,H5,1,1*%
%TO.N,GND*%
X122300000Y-84750000D03*
%TD*%
D21*
%TO.P,C23,1*%
%TO.N,GND*%
X136975000Y-100650000D03*
%TO.P,C23,2*%
%TO.N,Net-(U1C-VRLST)*%
X135425000Y-100650000D03*
%TD*%
D27*
%TO.P,U4,1,IN*%
%TO.N,VCC*%
X144700000Y-86825000D03*
%TO.P,U4,2,GND*%
%TO.N,GND*%
X143750000Y-86825000D03*
%TO.P,U4,3,EN*%
%TO.N,VCC*%
X142800000Y-86825000D03*
%TO.P,U4,4,BP*%
%TO.N,Net-(U4-BP)*%
X142800000Y-89100000D03*
%TO.P,U4,5,OUT*%
%TO.N,1V8*%
X144700000Y-89100000D03*
%TD*%
D26*
%TO.P,C18,1*%
%TO.N,3V3*%
X131500000Y-99075000D03*
%TO.P,C18,2*%
%TO.N,GND*%
X131500000Y-97525000D03*
%TD*%
D28*
%TO.P,C28,1*%
%TO.N,1V2*%
X136280000Y-102200000D03*
%TO.P,C28,2*%
%TO.N,GND*%
X135320000Y-102200000D03*
%TD*%
D11*
%TO.P,C25,1*%
%TO.N,Net-(U1C-VRHT)*%
X132870000Y-98150000D03*
%TO.P,C25,2*%
%TO.N,GND*%
X133830000Y-98150000D03*
%TD*%
D29*
%TO.N,GND*%
X139600000Y-115800000D03*
X141800000Y-102250000D03*
X142600000Y-115850000D03*
X136975000Y-100650000D03*
X143174999Y-85021823D03*
X132325000Y-90950000D03*
X137375000Y-90900000D03*
X145600000Y-115800000D03*
X135387940Y-102241926D03*
X146275000Y-90800000D03*
X141000000Y-98250000D03*
X141806261Y-97444669D03*
X125575000Y-108450000D03*
X133803990Y-99854653D03*
X146400000Y-96750000D03*
X135550000Y-107500000D03*
X141800000Y-99850000D03*
X141225000Y-90800000D03*
X142600000Y-104650000D03*
X135406169Y-99054082D03*
X136600000Y-115750000D03*
X148590000Y-117000000D03*
X137000000Y-98250000D03*
X122250000Y-115660000D03*
X134337500Y-85162500D03*
X128610000Y-117000000D03*
X135400000Y-103850000D03*
X133850000Y-98150000D03*
X133800000Y-102250000D03*
X137050000Y-103800000D03*
%TO.N,1V2*%
X136700000Y-93450000D03*
X142700000Y-105550000D03*
X135800000Y-93450000D03*
X140987202Y-99847158D03*
X137100000Y-99150000D03*
X136250000Y-102300000D03*
X140999999Y-101449661D03*
X141000000Y-102250000D03*
X135404082Y-104661131D03*
X134950000Y-93500000D03*
%TO.N,1V8*%
X141800000Y-96500000D03*
%TO.N,3V3*%
X132900000Y-103250000D03*
X132850000Y-102350000D03*
X132900000Y-99100000D03*
X132900000Y-101350000D03*
%TO.N,Net-(U1C-VRLST)*%
X135400000Y-100650000D03*
%TO.N,Net-(U1C-VRLFR)*%
X132900000Y-100050000D03*
%TO.N,Net-(U1C-VRHT)*%
X132900000Y-98150000D03*
%TO.N,Net-(U1C-XMASTER)*%
X136996671Y-104646227D03*
%TO.N,Net-(U1C-SLAMODE1)*%
X138960000Y-103600000D03*
%TO.N,Net-(U1C-SLAMODE0)*%
X140850000Y-105650000D03*
%TO.N,SCL_1V8*%
X137795311Y-104654780D03*
%TO.N,DMO2N*%
X144200000Y-103050000D03*
%TO.N,XCLR_1V8*%
X135350000Y-109450000D03*
X139950000Y-106610000D03*
%TO.N,DMO1P*%
X143600000Y-114200000D03*
%TO.N,Net-(U1C-INCK)*%
X144750000Y-98650000D03*
%TO.N,DCKN*%
X138600000Y-114200000D03*
%TO.N,DCKP*%
X137600000Y-114200000D03*
%TO.N,DMO2P*%
X143400000Y-103050000D03*
%TO.N,DMO1N*%
X144600000Y-114200000D03*
%TO.N,SDA_1V8*%
X138600000Y-104650000D03*
%TO.N,LED*%
X134600000Y-116300000D03*
%TO.N,Net-(U1C-XCLR)*%
X140250000Y-104600000D03*
%TD*%
D30*
%TO.N,GND*%
X143750000Y-85625000D02*
X143175000Y-85050000D01*
D31*
X133830000Y-104120000D02*
X133830000Y-103300000D01*
D32*
X136600000Y-114200000D02*
X136600000Y-115750000D01*
D30*
X138120000Y-98170000D02*
X137150000Y-98170000D01*
D31*
X133830000Y-97930000D02*
X133830000Y-98150000D01*
X140820000Y-97430000D02*
X141791592Y-97430000D01*
X141880000Y-103100000D02*
X141880000Y-99850000D01*
X131600000Y-104875000D02*
X133075000Y-104875000D01*
X141860000Y-105650000D02*
X141860000Y-105390000D01*
X133075000Y-104875000D02*
X133830000Y-104120000D01*
X137940000Y-103600000D02*
X137250000Y-103600000D01*
D32*
X139600000Y-114200000D02*
X139600000Y-115800000D01*
D31*
X133830000Y-101400000D02*
X133830000Y-103300000D01*
X141860000Y-105390000D02*
X142600000Y-104650000D01*
X145125000Y-96750000D02*
X144700000Y-96325000D01*
X146425000Y-96750000D02*
X146400000Y-96750000D01*
X134775000Y-105950000D02*
X134775000Y-106725000D01*
D30*
X138850000Y-98875000D02*
X138825000Y-98875000D01*
D31*
X134775000Y-106725000D02*
X135550000Y-107500000D01*
X137250000Y-103600000D02*
X137050000Y-103800000D01*
X131500000Y-97525000D02*
X133425000Y-97525000D01*
X133830000Y-100050000D02*
X133830000Y-99100000D01*
D30*
X134850000Y-85675000D02*
X134337500Y-85162500D01*
X138825000Y-98875000D02*
X138120000Y-98170000D01*
D31*
X133425000Y-97525000D02*
X133830000Y-97930000D01*
D32*
X145600000Y-114200000D02*
X145600000Y-115800000D01*
D30*
X134337500Y-85162500D02*
X134325000Y-85150000D01*
X125575000Y-109500000D02*
X125575000Y-108450000D01*
X125575000Y-108450000D02*
X125575000Y-107350000D01*
D32*
X136562500Y-107500000D02*
X135550000Y-107500000D01*
D31*
X141791592Y-97430000D02*
X141806261Y-97444669D01*
X133830000Y-99100000D02*
X133830000Y-98150000D01*
D30*
X143750000Y-86825000D02*
X143750000Y-85625000D01*
D31*
X146400000Y-96750000D02*
X145125000Y-96750000D01*
D30*
X134850000Y-86950000D02*
X134850000Y-85675000D01*
D32*
X142600000Y-114200000D02*
X142600000Y-115850000D01*
D30*
%TO.N,Net-(U2-BP)*%
X133900000Y-89225000D02*
X133900000Y-90925000D01*
X133900000Y-90925000D02*
X133875000Y-90950000D01*
%TO.N,1V2*%
X140920000Y-101195000D02*
X140920000Y-101200000D01*
X139700000Y-100425000D02*
X140150000Y-100425000D01*
X140345000Y-100425000D02*
X140920000Y-99850000D01*
X138850000Y-100425000D02*
X139700000Y-100425000D01*
X140150000Y-100425000D02*
X140345000Y-100425000D01*
X140920000Y-101200000D02*
X140920000Y-103100000D01*
X138445000Y-100425000D02*
X137150000Y-99130000D01*
X139700000Y-100425000D02*
X138445000Y-100425000D01*
X140150000Y-100425000D02*
X140920000Y-101195000D01*
D31*
X140920000Y-103100000D02*
X140920000Y-102170000D01*
X140920000Y-102170000D02*
X140900000Y-102150000D01*
D32*
%TO.N,VCC*%
X133900000Y-86950000D02*
X133900000Y-87750000D01*
X144150000Y-88050000D02*
X144700000Y-87500000D01*
X143350000Y-88050000D02*
X144150000Y-88050000D01*
X144700000Y-87500000D02*
X144700000Y-86825000D01*
X135800000Y-87600000D02*
X135800000Y-86950000D01*
X134300000Y-88150000D02*
X135250000Y-88150000D01*
X142800000Y-86825000D02*
X142800000Y-87500000D01*
X135250000Y-88150000D02*
X135800000Y-87600000D01*
X142800000Y-87500000D02*
X143350000Y-88050000D01*
X133900000Y-87750000D02*
X134300000Y-88150000D01*
D30*
%TO.N,Net-(U4-BP)*%
X142800000Y-90775000D02*
X142775000Y-90800000D01*
X142800000Y-89100000D02*
X142800000Y-90775000D01*
%TO.N,1V8*%
X144700000Y-94775000D02*
X143500000Y-94775000D01*
D31*
X142650000Y-103650000D02*
X142300000Y-104000000D01*
X148075000Y-94650000D02*
X146425000Y-94650000D01*
X131650000Y-107500000D02*
X130837500Y-107500000D01*
X142300000Y-104000000D02*
X141750000Y-104550000D01*
D30*
X144725000Y-94750000D02*
X144700000Y-94775000D01*
D31*
X141750000Y-104550000D02*
X141360000Y-104550000D01*
X132300000Y-107500000D02*
X133225000Y-106575000D01*
D30*
X143500000Y-94775000D02*
X142875000Y-94775000D01*
D31*
X133225000Y-106575000D02*
X133225000Y-105950000D01*
X139900000Y-103900000D02*
X142200000Y-103900000D01*
D30*
X144700000Y-90775000D02*
X144725000Y-90800000D01*
D31*
X141770000Y-96470000D02*
X141800000Y-96500000D01*
X143500000Y-94775000D02*
X143500000Y-101650000D01*
X139300000Y-110500000D02*
X139300000Y-104500000D01*
D30*
X142875000Y-94775000D02*
X141750000Y-95900000D01*
D31*
X130837500Y-107500000D02*
X132300000Y-107500000D01*
D30*
X141750000Y-95900000D02*
X141750000Y-96470000D01*
D31*
X144700000Y-94775000D02*
X146300000Y-94775000D01*
X143500000Y-101650000D02*
X142650000Y-102500000D01*
X136562500Y-111400000D02*
X135550000Y-111400000D01*
X136562500Y-111400000D02*
X138400000Y-111400000D01*
D30*
X144725000Y-90800000D02*
X144725000Y-94750000D01*
D31*
X146300000Y-94775000D02*
X146425000Y-94650000D01*
X135550000Y-111400000D02*
X131650000Y-107500000D01*
X140820000Y-96470000D02*
X141770000Y-96470000D01*
X138400000Y-111400000D02*
X139300000Y-110500000D01*
D30*
X144700000Y-89100000D02*
X144700000Y-90775000D01*
D31*
X142650000Y-102500000D02*
X142650000Y-103650000D01*
X139300000Y-104500000D02*
X139900000Y-103900000D01*
X142200000Y-103900000D02*
X142300000Y-104000000D01*
%TO.N,3V3*%
X132900000Y-101350000D02*
X132900000Y-103250000D01*
D30*
X131600000Y-103325000D02*
X132825000Y-103325000D01*
X132845000Y-99075000D02*
X132870000Y-99100000D01*
X132825000Y-103325000D02*
X132900000Y-103250000D01*
X131500000Y-99075000D02*
X132845000Y-99075000D01*
D32*
%TO.N,SCL_1V8*%
X138150000Y-109800000D02*
X138150000Y-106000000D01*
X137850000Y-110100000D02*
X138150000Y-109800000D01*
X137795311Y-105645311D02*
X137795311Y-104654780D01*
X138150000Y-106000000D02*
X137795311Y-105645311D01*
X136562500Y-110100000D02*
X137850000Y-110100000D01*
D33*
%TO.N,DMO2N*%
X141600000Y-112699999D02*
X141600000Y-114200000D01*
X144962108Y-109646233D02*
X144820688Y-109787654D01*
X144672407Y-108593279D02*
X144962109Y-108882981D01*
X141239700Y-111657866D02*
X141239700Y-112339699D01*
X142912346Y-108642564D02*
X143484891Y-109215108D01*
X143484892Y-109215111D02*
X144057436Y-109787655D01*
X142692506Y-110205057D02*
X142551085Y-110346479D01*
X142532749Y-110364817D02*
X141239700Y-111657866D01*
X142551085Y-110346479D02*
X142532749Y-110364817D01*
X143939700Y-103671628D02*
X145714700Y-105446628D01*
X143939700Y-103310300D02*
X143939700Y-103671628D01*
X145714700Y-105446628D02*
X145714700Y-107182866D01*
X141239700Y-112339699D02*
X141600000Y-112699999D01*
X145714700Y-107182866D02*
X144672407Y-108225159D01*
X142544227Y-108642564D02*
X142402805Y-108783985D01*
X143484892Y-109215111D02*
X143484891Y-109215108D01*
X142402805Y-109152105D02*
X142692506Y-109441806D01*
X144200000Y-103050000D02*
X143939700Y-103310300D01*
X142402805Y-108783985D02*
G75*
G03*
X142402850Y-109152060I184095J-184015D01*
G01*
X144962109Y-108882981D02*
G75*
G02*
X144962102Y-109646226I-381609J-381619D01*
G01*
X144820688Y-109787654D02*
G75*
G02*
X144057474Y-109787617I-381588J381654D01*
G01*
X142912346Y-108642564D02*
G75*
G03*
X142544228Y-108642564I-184059J-184059D01*
G01*
X142692506Y-109441806D02*
G75*
G02*
X142692475Y-110205025I-381606J-381594D01*
G01*
X144672407Y-108225159D02*
G75*
G03*
X144672426Y-108593260I184093J-184041D01*
G01*
D32*
%TO.N,XCLR_1V8*%
X136562500Y-109450000D02*
X135350000Y-109450000D01*
D31*
%TO.N,Net-(U1C-INCK)*%
X147150000Y-98650000D02*
X144750000Y-98650000D01*
X147150000Y-98650000D02*
X148075000Y-97725000D01*
X148075000Y-96750000D02*
X148075000Y-97725000D01*
D33*
%TO.N,DMO2P*%
X140960300Y-112339699D02*
X140600000Y-112699999D01*
X143682459Y-109017545D02*
X143682456Y-109017543D01*
X145435300Y-107067134D02*
X144474841Y-108027593D01*
X142335183Y-110167251D02*
X140960300Y-111542134D01*
X143660300Y-103310300D02*
X143660300Y-103828372D01*
X143660300Y-103828372D02*
X145435300Y-105603372D01*
X142353520Y-110148914D02*
X142335183Y-110167251D01*
X142494940Y-110007491D02*
X142353520Y-110148914D01*
X144764543Y-109448668D02*
X144623123Y-109590089D01*
X143682459Y-109017545D02*
X144255003Y-109590089D01*
X143400000Y-103050000D02*
X143660300Y-103310300D01*
X144474841Y-108027593D02*
X144474842Y-108027594D01*
X142205239Y-109349670D02*
X142494940Y-109639371D01*
X140960300Y-111542134D02*
X140960300Y-112339699D01*
X142346661Y-108444998D02*
X142205239Y-108586419D01*
X140600000Y-112699999D02*
X140600000Y-114200000D01*
X143109912Y-108444998D02*
X143682456Y-109017543D01*
X144474841Y-108790846D02*
X144764543Y-109080548D01*
X145435300Y-105603372D02*
X145435300Y-107067134D01*
X143109912Y-108444998D02*
G75*
G03*
X142346662Y-108444998I-381625J-381624D01*
G01*
X144474842Y-108027594D02*
G75*
G03*
X144474861Y-108790826I381658J-381606D01*
G01*
X144623123Y-109590089D02*
G75*
G02*
X144255003Y-109590089I-184060J184061D01*
G01*
X142205239Y-108586419D02*
G75*
G03*
X142205283Y-109349626I381661J-381581D01*
G01*
X142494940Y-109639371D02*
G75*
G02*
X142494909Y-110007460I-184040J-184029D01*
G01*
X144764543Y-109080548D02*
G75*
G02*
X144764535Y-109448660I-184043J-184052D01*
G01*
D32*
%TO.N,SDA_1V8*%
X138750000Y-105550000D02*
X138600000Y-105400000D01*
X138750000Y-109950000D02*
X138750000Y-105550000D01*
X136562500Y-110750000D02*
X137950000Y-110750000D01*
X138600000Y-105400000D02*
X138600000Y-104650000D01*
X137950000Y-110750000D02*
X138750000Y-109950000D01*
%TO.N,XCLR_3V3*%
X135600000Y-112500000D02*
X135600000Y-114200000D01*
X130837500Y-109450000D02*
X132550000Y-109450000D01*
X132550000Y-109450000D02*
X135600000Y-112500000D01*
%TO.N,SCL_3V3*%
X133600000Y-111950000D02*
X133600000Y-114200000D01*
X130837500Y-110100000D02*
X131750000Y-110100000D01*
X131750000Y-110100000D02*
X133600000Y-111950000D01*
%TO.N,SDA_3V3*%
X132600000Y-111775001D02*
X131574999Y-110750000D01*
X132600000Y-114200000D02*
X132600000Y-111775001D01*
X131574999Y-110750000D02*
X130837500Y-110750000D01*
D31*
%TO.N,LED*%
X134600000Y-114200000D02*
X134600000Y-116300000D01*
%TO.N,Net-(U1C-XCLR)*%
X139950000Y-105590000D02*
X139950000Y-104900000D01*
X139950000Y-104900000D02*
X140250000Y-104600000D01*
%TD*%
%TA.AperFunction,Conductor*%
%TO.N,VCC*%
G36*
X145900000Y-87390248D02*
G01*
X145898097Y-87409563D01*
X145888616Y-87457224D01*
X145873835Y-87492910D01*
X145852362Y-87525047D01*
X145825047Y-87552362D01*
X145792910Y-87573835D01*
X145757224Y-87588616D01*
X145709563Y-87598097D01*
X145690248Y-87600000D01*
X144509752Y-87600000D01*
X144490438Y-87598098D01*
X144474470Y-87594921D01*
X144442775Y-87588617D01*
X144407089Y-87573835D01*
X144406330Y-87573328D01*
X144374949Y-87552359D01*
X144347640Y-87525050D01*
X144326163Y-87492908D01*
X144311382Y-87457222D01*
X144301902Y-87409561D01*
X144300000Y-87390248D01*
X144300000Y-84590503D01*
X144300000Y-84250000D01*
X145900000Y-84250000D01*
X145900000Y-87390248D01*
G37*
%TD.AperFunction*%
%TD*%
%TA.AperFunction,Conductor*%
%TO.N,VCC*%
G36*
X129106510Y-84311379D02*
G01*
X129124648Y-90750203D01*
X129105152Y-90817297D01*
X129052477Y-90863201D01*
X129000202Y-90874551D01*
X123854395Y-90856039D01*
X123854395Y-90856040D01*
X122175000Y-90850000D01*
X122025000Y-88975000D01*
X125399595Y-88950003D01*
X125400513Y-88950000D01*
X126700000Y-88950000D01*
X126700000Y-82124000D01*
X126719685Y-82056961D01*
X126772489Y-82011206D01*
X126824000Y-82000000D01*
X126949999Y-82000000D01*
X129100000Y-82000000D01*
X129106510Y-84311379D01*
G37*
%TD.AperFunction*%
%TD*%
%TA.AperFunction,Conductor*%
%TO.N,VCC*%
G36*
X123829503Y-88918907D02*
G01*
X123845043Y-88938547D01*
X123845094Y-88938497D01*
X123850097Y-88943452D01*
X123850137Y-88961480D01*
X122025000Y-88975000D01*
X122175000Y-90850000D01*
X123854394Y-90856040D01*
X123854846Y-91057206D01*
X123854846Y-91057212D01*
X123874818Y-99944533D01*
X123882054Y-103164366D01*
X123900000Y-111150000D01*
X126950000Y-111150000D01*
X127000000Y-113900000D01*
X119809341Y-113900000D01*
X119790049Y-113898102D01*
X119742443Y-113888644D01*
X119706797Y-113873900D01*
X119674682Y-113852477D01*
X119647373Y-113825223D01*
X119625886Y-113793152D01*
X119611069Y-113757532D01*
X119601517Y-113709947D01*
X119599581Y-113690666D01*
X119550420Y-89110154D01*
X119552288Y-89090824D01*
X119561697Y-89043083D01*
X119576440Y-89007337D01*
X119597906Y-88975124D01*
X119625223Y-88947754D01*
X119657385Y-88926229D01*
X119693110Y-88911410D01*
X119710945Y-88907858D01*
X119740826Y-88901907D01*
X119760163Y-88900000D01*
X123771312Y-88900000D01*
X123829503Y-88918907D01*
G37*
%TD.AperFunction*%
%TD*%
%TA.AperFunction,Conductor*%
%TO.N,1V2*%
G36*
X136209561Y-88501902D02*
G01*
X136257222Y-88511382D01*
X136292908Y-88526163D01*
X136325050Y-88547640D01*
X136352359Y-88574949D01*
X136373328Y-88606330D01*
X136373835Y-88607089D01*
X136388616Y-88642775D01*
X136398097Y-88690436D01*
X136400000Y-88709751D01*
X136400000Y-92350000D01*
X136480000Y-92410000D01*
X136599024Y-92499268D01*
X136599814Y-92499864D01*
X136600131Y-92500105D01*
X136600967Y-92500744D01*
X137159458Y-92930353D01*
X137162927Y-92933021D01*
X137179145Y-92948749D01*
X137214820Y-92992299D01*
X137234655Y-93032581D01*
X137247420Y-93087400D01*
X137250000Y-93109852D01*
X137250000Y-93690248D01*
X137248097Y-93709563D01*
X137238616Y-93757224D01*
X137223835Y-93792910D01*
X137202362Y-93825047D01*
X137175047Y-93852362D01*
X137142910Y-93873835D01*
X137107224Y-93888616D01*
X137059563Y-93898097D01*
X137040248Y-93900000D01*
X134759752Y-93900000D01*
X134740438Y-93898098D01*
X134724470Y-93894921D01*
X134692775Y-93888617D01*
X134657089Y-93873835D01*
X134656330Y-93873328D01*
X134624949Y-93852359D01*
X134597640Y-93825050D01*
X134576163Y-93792908D01*
X134561382Y-93757222D01*
X134551902Y-93709561D01*
X134550000Y-93690248D01*
X134550000Y-93004558D01*
X134552365Y-92983049D01*
X134564094Y-92930351D01*
X134582338Y-92891399D01*
X134615320Y-92848642D01*
X134630321Y-92833065D01*
X135078037Y-92459969D01*
X135078036Y-92459969D01*
X135150000Y-92400000D01*
X135150000Y-90338036D01*
X135153373Y-90312413D01*
X135166580Y-90263123D01*
X135192201Y-90218744D01*
X135218744Y-90192201D01*
X135263122Y-90166580D01*
X135290116Y-90159347D01*
X135325001Y-90150000D01*
X135500000Y-90150000D01*
X135500000Y-88709751D01*
X135501902Y-88690438D01*
X135511382Y-88642777D01*
X135526162Y-88607092D01*
X135547642Y-88574946D01*
X135574946Y-88547642D01*
X135607092Y-88526162D01*
X135642775Y-88511382D01*
X135668021Y-88506360D01*
X135690439Y-88501902D01*
X135709752Y-88500000D01*
X136190248Y-88500000D01*
X136209561Y-88501902D01*
G37*
%TD.AperFunction*%
%TD*%
%TA.AperFunction,Conductor*%
%TO.N,3V3*%
G36*
X131909561Y-98601902D02*
G01*
X131957222Y-98611382D01*
X131992908Y-98626163D01*
X132025050Y-98647640D01*
X132052359Y-98674949D01*
X132073328Y-98706330D01*
X132073835Y-98707089D01*
X132088616Y-98742775D01*
X132098097Y-98790436D01*
X132100000Y-98809751D01*
X132100000Y-103590248D01*
X132098097Y-103609563D01*
X132088616Y-103657224D01*
X132073835Y-103692910D01*
X132052362Y-103725047D01*
X132025047Y-103752362D01*
X131992910Y-103773835D01*
X131957224Y-103788616D01*
X131909563Y-103798097D01*
X131890248Y-103800000D01*
X130700000Y-103800000D01*
X130700000Y-103999999D01*
X130700000Y-106340248D01*
X130698097Y-106359563D01*
X130688616Y-106407224D01*
X130673835Y-106442910D01*
X130652362Y-106475047D01*
X130625047Y-106502362D01*
X130592910Y-106523835D01*
X130557224Y-106538616D01*
X130509563Y-106548097D01*
X130490248Y-106550000D01*
X129600000Y-106550000D01*
X129600000Y-106749999D01*
X129600000Y-107590248D01*
X129598097Y-107609563D01*
X129588616Y-107657224D01*
X129573835Y-107692910D01*
X129552362Y-107725047D01*
X129525047Y-107752362D01*
X129492910Y-107773835D01*
X129457224Y-107788616D01*
X129409563Y-107798097D01*
X129390248Y-107800000D01*
X126959752Y-107800000D01*
X126940438Y-107798098D01*
X126924470Y-107794921D01*
X126892775Y-107788617D01*
X126857089Y-107773835D01*
X126856330Y-107773328D01*
X126824949Y-107752359D01*
X126797640Y-107725050D01*
X126776163Y-107692908D01*
X126761382Y-107657222D01*
X126751902Y-107609561D01*
X126750000Y-107590248D01*
X126750000Y-107009751D01*
X126751902Y-106990438D01*
X126761382Y-106942777D01*
X126776162Y-106907092D01*
X126797642Y-106874946D01*
X126824946Y-106847642D01*
X126857092Y-106826162D01*
X126892775Y-106811382D01*
X126918021Y-106806360D01*
X126940439Y-106801902D01*
X126959752Y-106800000D01*
X127749999Y-106800000D01*
X127750000Y-106800000D01*
X127950000Y-106800000D01*
X127950000Y-104359751D01*
X127951902Y-104340438D01*
X127961382Y-104292777D01*
X127976162Y-104257092D01*
X127997642Y-104224946D01*
X128024946Y-104197642D01*
X128057092Y-104176162D01*
X128092775Y-104161382D01*
X128118021Y-104156360D01*
X128140439Y-104151902D01*
X128159752Y-104150000D01*
X129399999Y-104150000D01*
X129400000Y-104150000D01*
X129600000Y-104150000D01*
X129600000Y-103209751D01*
X129601902Y-103190438D01*
X129611382Y-103142777D01*
X129626162Y-103107092D01*
X129647642Y-103074946D01*
X129674946Y-103047642D01*
X129707092Y-103026162D01*
X129742775Y-103011382D01*
X129768021Y-103006360D01*
X129790439Y-103001902D01*
X129809752Y-103000000D01*
X130349999Y-103000000D01*
X130350000Y-103000000D01*
X130550000Y-103000000D01*
X130550000Y-98809751D01*
X130551902Y-98790438D01*
X130561382Y-98742777D01*
X130576162Y-98707092D01*
X130597642Y-98674946D01*
X130624946Y-98647642D01*
X130657092Y-98626162D01*
X130692775Y-98611382D01*
X130718021Y-98606360D01*
X130740439Y-98601902D01*
X130759752Y-98600000D01*
X131890248Y-98600000D01*
X131909561Y-98601902D01*
G37*
%TD.AperFunction*%
%TD*%
%TA.AperFunction,Conductor*%
%TO.N,VCC*%
G36*
X145687523Y-81999439D02*
G01*
X145713085Y-82002868D01*
X145774742Y-82019534D01*
X145819003Y-82045192D01*
X145836925Y-82063160D01*
X145854592Y-82080875D01*
X145880135Y-82125205D01*
X145896638Y-82186903D01*
X145900000Y-82212484D01*
X145900000Y-84250000D01*
X144300000Y-84250000D01*
X144300000Y-84391555D01*
X144101058Y-84390506D01*
X144101055Y-84390506D01*
X143522544Y-84387452D01*
X143507581Y-84386234D01*
X143433492Y-84374500D01*
X143433488Y-84374500D01*
X142916512Y-84374500D01*
X142916509Y-84374500D01*
X142864864Y-84382679D01*
X142848856Y-84383897D01*
X137269681Y-84354456D01*
X137151055Y-84353830D01*
X137151054Y-84353830D01*
X137151051Y-84353830D01*
X137151045Y-84353830D01*
X136950000Y-84352769D01*
X136950000Y-84300000D01*
X135350000Y-84300000D01*
X135350000Y-84344326D01*
X135151059Y-84343277D01*
X135151055Y-84343276D01*
X129308133Y-84312443D01*
X129308128Y-84312443D01*
X129106510Y-84311379D01*
X129100000Y-82000000D01*
X126950000Y-82000000D01*
X126950000Y-81985355D01*
X126956156Y-81979199D01*
X127010672Y-81951420D01*
X127026413Y-81950201D01*
X145687523Y-81999439D01*
G37*
%TD.AperFunction*%
%TD*%
%TA.AperFunction,Conductor*%
%TO.N,VCC*%
G36*
X136950000Y-84553828D02*
G01*
X136950000Y-87440248D01*
X136948097Y-87459563D01*
X136938616Y-87507224D01*
X136923835Y-87542910D01*
X136902362Y-87575047D01*
X136875047Y-87602362D01*
X136842910Y-87623835D01*
X136807224Y-87638616D01*
X136759563Y-87648097D01*
X136740248Y-87650000D01*
X135559752Y-87650000D01*
X135540438Y-87648098D01*
X135524470Y-87644921D01*
X135492775Y-87638617D01*
X135457089Y-87623835D01*
X135456330Y-87623328D01*
X135424949Y-87602359D01*
X135397640Y-87575050D01*
X135376163Y-87542908D01*
X135361382Y-87507222D01*
X135352402Y-87462074D01*
X135350500Y-87442761D01*
X135350500Y-86404241D01*
X135350259Y-86400917D01*
X135350000Y-86393760D01*
X135350000Y-84543274D01*
X135350000Y-84300000D01*
X136950000Y-84300000D01*
X136950000Y-84553828D01*
G37*
%TD.AperFunction*%
%TD*%
%TA.AperFunction,Conductor*%
%TO.N,VCC*%
G36*
X129159561Y-109001902D02*
G01*
X129207222Y-109011382D01*
X129242908Y-109026163D01*
X129275050Y-109047640D01*
X129302359Y-109074949D01*
X129323328Y-109106330D01*
X129323835Y-109107089D01*
X129338616Y-109142775D01*
X129348097Y-109190436D01*
X129350000Y-109209751D01*
X129350000Y-111200000D01*
X131412603Y-111200000D01*
X131439656Y-111203768D01*
X131461106Y-111209861D01*
X131504486Y-111222184D01*
X131550511Y-111250630D01*
X131595977Y-111300380D01*
X131611446Y-111322892D01*
X131876314Y-111852630D01*
X131880839Y-111863165D01*
X131890720Y-111890423D01*
X131895983Y-111912712D01*
X131899336Y-111941509D01*
X131900000Y-111952959D01*
X131900000Y-114940248D01*
X131898097Y-114959563D01*
X131888616Y-115007224D01*
X131873835Y-115042910D01*
X131852362Y-115075047D01*
X131825047Y-115102362D01*
X131792910Y-115123835D01*
X131757224Y-115138616D01*
X131709563Y-115148097D01*
X131690248Y-115150000D01*
X131346114Y-115150000D01*
X131326145Y-115147965D01*
X131310211Y-115144683D01*
X131276968Y-115137837D01*
X131240280Y-115122056D01*
X131199109Y-115093323D01*
X131183898Y-115080226D01*
X131133035Y-115026537D01*
X130409164Y-114262451D01*
X130350000Y-114200000D01*
X130263974Y-114200000D01*
X126913035Y-114200000D01*
X126887411Y-114196626D01*
X126850622Y-114186768D01*
X126806242Y-114161146D01*
X126788853Y-114143757D01*
X126763230Y-114099376D01*
X126750000Y-114050000D01*
X126750000Y-114049999D01*
X126750000Y-113900000D01*
X127000000Y-113900000D01*
X126950000Y-111150000D01*
X126750000Y-111150000D01*
X126750000Y-109209751D01*
X126751902Y-109190438D01*
X126761382Y-109142777D01*
X126776162Y-109107092D01*
X126797642Y-109074946D01*
X126824946Y-109047642D01*
X126857092Y-109026162D01*
X126892775Y-109011382D01*
X126918021Y-109006360D01*
X126940439Y-109001902D01*
X126959752Y-109000000D01*
X129140248Y-109000000D01*
X129159561Y-109001902D01*
G37*
%TD.AperFunction*%
%TD*%
M02*
