%TF.GenerationSoftware,KiCad,Pcbnew,8.0.9*%
%TF.CreationDate,2025-03-13T22:53:30+08:00*%
%TF.ProjectId,Raspberry_pi_IMX662,52617370-6265-4727-9279-5f70695f494d,rev?*%
%TF.SameCoordinates,Original*%
%TF.FileFunction,Legend,Bot*%
%TF.FilePolarity,Positive*%
%FSLAX46Y46*%
G04 Gerber Fmt 4.6, Leading zero omitted, Abs format (unit mm)*
G04 Created by KiCad (PCBNEW 8.0.9) date 2025-03-13 22:53:30*
%MOMM*%
%LPD*%
G01*
G04 APERTURE LIST*
%ADD10C,0.100000*%
%ADD11C,0.150000*%
%ADD12C,0.120000*%
%ADD13C,0.200000*%
G04 APERTURE END LIST*
D10*
X140696115Y-107872419D02*
X140696115Y-106872419D01*
X140219925Y-107872419D02*
X140219925Y-106872419D01*
X140219925Y-106872419D02*
X139886592Y-107586704D01*
X139886592Y-107586704D02*
X139553259Y-106872419D01*
X139553259Y-106872419D02*
X139553259Y-107872419D01*
X139172306Y-106872419D02*
X138505640Y-107872419D01*
X138505640Y-106872419D02*
X139172306Y-107872419D01*
X137696116Y-106872419D02*
X137886592Y-106872419D01*
X137886592Y-106872419D02*
X137981830Y-106920038D01*
X137981830Y-106920038D02*
X138029449Y-106967657D01*
X138029449Y-106967657D02*
X138124687Y-107110514D01*
X138124687Y-107110514D02*
X138172306Y-107300990D01*
X138172306Y-107300990D02*
X138172306Y-107681942D01*
X138172306Y-107681942D02*
X138124687Y-107777180D01*
X138124687Y-107777180D02*
X138077068Y-107824800D01*
X138077068Y-107824800D02*
X137981830Y-107872419D01*
X137981830Y-107872419D02*
X137791354Y-107872419D01*
X137791354Y-107872419D02*
X137696116Y-107824800D01*
X137696116Y-107824800D02*
X137648497Y-107777180D01*
X137648497Y-107777180D02*
X137600878Y-107681942D01*
X137600878Y-107681942D02*
X137600878Y-107443847D01*
X137600878Y-107443847D02*
X137648497Y-107348609D01*
X137648497Y-107348609D02*
X137696116Y-107300990D01*
X137696116Y-107300990D02*
X137791354Y-107253371D01*
X137791354Y-107253371D02*
X137981830Y-107253371D01*
X137981830Y-107253371D02*
X138077068Y-107300990D01*
X138077068Y-107300990D02*
X138124687Y-107348609D01*
X138124687Y-107348609D02*
X138172306Y-107443847D01*
X136743735Y-106872419D02*
X136934211Y-106872419D01*
X136934211Y-106872419D02*
X137029449Y-106920038D01*
X137029449Y-106920038D02*
X137077068Y-106967657D01*
X137077068Y-106967657D02*
X137172306Y-107110514D01*
X137172306Y-107110514D02*
X137219925Y-107300990D01*
X137219925Y-107300990D02*
X137219925Y-107681942D01*
X137219925Y-107681942D02*
X137172306Y-107777180D01*
X137172306Y-107777180D02*
X137124687Y-107824800D01*
X137124687Y-107824800D02*
X137029449Y-107872419D01*
X137029449Y-107872419D02*
X136838973Y-107872419D01*
X136838973Y-107872419D02*
X136743735Y-107824800D01*
X136743735Y-107824800D02*
X136696116Y-107777180D01*
X136696116Y-107777180D02*
X136648497Y-107681942D01*
X136648497Y-107681942D02*
X136648497Y-107443847D01*
X136648497Y-107443847D02*
X136696116Y-107348609D01*
X136696116Y-107348609D02*
X136743735Y-107300990D01*
X136743735Y-107300990D02*
X136838973Y-107253371D01*
X136838973Y-107253371D02*
X137029449Y-107253371D01*
X137029449Y-107253371D02*
X137124687Y-107300990D01*
X137124687Y-107300990D02*
X137172306Y-107348609D01*
X137172306Y-107348609D02*
X137219925Y-107443847D01*
X136267544Y-106967657D02*
X136219925Y-106920038D01*
X136219925Y-106920038D02*
X136124687Y-106872419D01*
X136124687Y-106872419D02*
X135886592Y-106872419D01*
X135886592Y-106872419D02*
X135791354Y-106920038D01*
X135791354Y-106920038D02*
X135743735Y-106967657D01*
X135743735Y-106967657D02*
X135696116Y-107062895D01*
X135696116Y-107062895D02*
X135696116Y-107158133D01*
X135696116Y-107158133D02*
X135743735Y-107300990D01*
X135743735Y-107300990D02*
X136315163Y-107872419D01*
X136315163Y-107872419D02*
X135696116Y-107872419D01*
G36*
X126124193Y-118519959D02*
G01*
X126163859Y-118518152D01*
X126205939Y-118513605D01*
X126212512Y-118512729D01*
X126301025Y-118501201D01*
X126304002Y-118541666D01*
X126306582Y-118581679D01*
X126308765Y-118621240D01*
X126310551Y-118660350D01*
X126312225Y-118708601D01*
X126313279Y-118756146D01*
X126313714Y-118802986D01*
X126313726Y-118812269D01*
X126313254Y-118852984D01*
X126312080Y-118894869D01*
X126311577Y-118908989D01*
X126310267Y-118949610D01*
X126309503Y-118990402D01*
X126309427Y-119005709D01*
X126310040Y-119046961D01*
X126312070Y-119087781D01*
X126313140Y-119101452D01*
X126140020Y-119099303D01*
X126103315Y-119113900D01*
X126101332Y-119115912D01*
X126085838Y-119151919D01*
X126085701Y-119156358D01*
X126098539Y-119194402D01*
X126101332Y-119197586D01*
X126137167Y-119213935D01*
X126140020Y-119214000D01*
X126181480Y-119214000D01*
X126221171Y-119214000D01*
X126232442Y-119214000D01*
X126274262Y-119214000D01*
X126314328Y-119214000D01*
X126324668Y-119214000D01*
X126366640Y-119215373D01*
X126407460Y-119218127D01*
X126433307Y-119220252D01*
X126474935Y-119223549D01*
X126515822Y-119225894D01*
X126542337Y-119226505D01*
X126579042Y-119212251D01*
X126581025Y-119210287D01*
X126596596Y-119172987D01*
X126596657Y-119170036D01*
X126583819Y-119132767D01*
X126581025Y-119129589D01*
X126545019Y-119113046D01*
X126542142Y-119112981D01*
X126502049Y-119110774D01*
X126462421Y-119106496D01*
X126424124Y-119101452D01*
X126420384Y-119060249D01*
X126418845Y-119021121D01*
X126418653Y-119000238D01*
X126419532Y-118958375D01*
X126421541Y-118918246D01*
X126422170Y-118908207D01*
X126424447Y-118866878D01*
X126425632Y-118826163D01*
X126425687Y-118816568D01*
X126425315Y-118775586D01*
X126424199Y-118731533D01*
X126422338Y-118684407D01*
X126420314Y-118644495D01*
X126417813Y-118602617D01*
X126414837Y-118558772D01*
X126411384Y-118512961D01*
X126410446Y-118501201D01*
X126481765Y-118503546D01*
X126553279Y-118505109D01*
X126590912Y-118491199D01*
X126592944Y-118489282D01*
X126608632Y-118453341D01*
X126608771Y-118448836D01*
X126597437Y-118411255D01*
X126560361Y-118393315D01*
X126557187Y-118392953D01*
X126517416Y-118390505D01*
X126477006Y-118389364D01*
X126433713Y-118388805D01*
X126390711Y-118388654D01*
X126347728Y-118389451D01*
X126300842Y-118391841D01*
X126258790Y-118395051D01*
X126214029Y-118399367D01*
X126166558Y-118404790D01*
X126126631Y-118409925D01*
X126116378Y-118411320D01*
X126079741Y-118428808D01*
X126067529Y-118467593D01*
X126082935Y-118504353D01*
X126086287Y-118507258D01*
X126124193Y-118519959D01*
G37*
G36*
X125263677Y-119264020D02*
G01*
X125301046Y-119250510D01*
X125316434Y-119216149D01*
X125322643Y-119173464D01*
X125327582Y-119132364D01*
X125331885Y-119091332D01*
X125335558Y-119052397D01*
X125336168Y-119045570D01*
X125354926Y-118874990D01*
X125362890Y-118835156D01*
X125373489Y-118800741D01*
X125391804Y-118765258D01*
X125414326Y-118751306D01*
X125453466Y-118764587D01*
X125490139Y-118785304D01*
X125524596Y-118807021D01*
X125555912Y-118831859D01*
X125559309Y-118835521D01*
X125559140Y-118876766D01*
X125557681Y-118917946D01*
X125556573Y-118936930D01*
X125539965Y-119081131D01*
X125535434Y-119121883D01*
X125531884Y-119163321D01*
X125529862Y-119203888D01*
X125529609Y-119222011D01*
X125543004Y-119259151D01*
X125544849Y-119261090D01*
X125582068Y-119276511D01*
X125583538Y-119276526D01*
X125620483Y-119263130D01*
X125622421Y-119261285D01*
X125637452Y-119223871D01*
X125637466Y-119222401D01*
X125638533Y-119181122D01*
X125641271Y-119136203D01*
X125645050Y-119090547D01*
X125649316Y-119046695D01*
X125650949Y-119031110D01*
X125655464Y-118985800D01*
X125659045Y-118944832D01*
X125662043Y-118902522D01*
X125663911Y-118861404D01*
X125664235Y-118839624D01*
X125666944Y-118797712D01*
X125676802Y-118759610D01*
X125680648Y-118751306D01*
X125717090Y-118772149D01*
X125748951Y-118797852D01*
X125758806Y-118807189D01*
X125823677Y-118878117D01*
X125849437Y-118909338D01*
X125851814Y-118911920D01*
X125853328Y-118951829D01*
X125856451Y-118991827D01*
X125857871Y-119007077D01*
X125861320Y-119046342D01*
X125863715Y-119087458D01*
X125863928Y-119099889D01*
X125859595Y-119139715D01*
X125858653Y-119145025D01*
X125853423Y-119184281D01*
X125853377Y-119186840D01*
X125869147Y-119223017D01*
X125870181Y-119223965D01*
X125906669Y-119238951D01*
X125909455Y-119239010D01*
X125944831Y-119222317D01*
X125962853Y-119183826D01*
X125970074Y-119138438D01*
X125971591Y-119097740D01*
X125970076Y-119056805D01*
X125966953Y-119015461D01*
X125965533Y-118999652D01*
X125962085Y-118958483D01*
X125959766Y-118917172D01*
X125959476Y-118901173D01*
X125960965Y-118862023D01*
X125964113Y-118820997D01*
X125964752Y-118813832D01*
X125967848Y-118774173D01*
X125969753Y-118733775D01*
X125969832Y-118725905D01*
X125967861Y-118683539D01*
X125959098Y-118640687D01*
X125935605Y-118607208D01*
X125913754Y-118601243D01*
X125877846Y-118620019D01*
X125874480Y-118624104D01*
X125857550Y-118659348D01*
X125856699Y-118669045D01*
X125859434Y-118701480D01*
X125862170Y-118734893D01*
X125860997Y-118792729D01*
X125840534Y-118757078D01*
X125814805Y-118723639D01*
X125787146Y-118695437D01*
X125776978Y-118686435D01*
X125743898Y-118661293D01*
X125708434Y-118643415D01*
X125682407Y-118638759D01*
X125642681Y-118643778D01*
X125606018Y-118661424D01*
X125577855Y-118691774D01*
X125563803Y-118719066D01*
X125537325Y-118689810D01*
X125504627Y-118665660D01*
X125491898Y-118658884D01*
X125452991Y-118645127D01*
X125412711Y-118639250D01*
X125396154Y-118638759D01*
X125353961Y-118644987D01*
X125319023Y-118663672D01*
X125291338Y-118694812D01*
X125273064Y-118732279D01*
X125270907Y-118738410D01*
X125263336Y-118777952D01*
X125257431Y-118820395D01*
X125252250Y-118861701D01*
X125248436Y-118893748D01*
X125242339Y-118933950D01*
X125236785Y-118974241D01*
X125230802Y-119020706D01*
X125225706Y-119062322D01*
X125220336Y-119107888D01*
X125214691Y-119157405D01*
X125210277Y-119197136D01*
X125208771Y-119210873D01*
X125223621Y-119248389D01*
X125260750Y-119263959D01*
X125263677Y-119264020D01*
G37*
G36*
X124099323Y-118715353D02*
G01*
X124110436Y-118760080D01*
X124122379Y-118806236D01*
X124135153Y-118853821D01*
X124148757Y-118902834D01*
X124159506Y-118940532D01*
X124170721Y-118979033D01*
X124182403Y-119018338D01*
X124194553Y-119058447D01*
X124207170Y-119099360D01*
X124211479Y-119113176D01*
X124225914Y-119151076D01*
X124244166Y-119186494D01*
X124262672Y-119215953D01*
X124293779Y-119241375D01*
X124314842Y-119244481D01*
X124352855Y-119226405D01*
X124376613Y-119191564D01*
X124392285Y-119153443D01*
X124403938Y-119113826D01*
X124408241Y-119095981D01*
X124416530Y-119056405D01*
X124423563Y-119016246D01*
X124429991Y-118974523D01*
X124430711Y-118969561D01*
X124448883Y-118849198D01*
X124494019Y-118952367D01*
X124577452Y-119175311D01*
X124598360Y-119207161D01*
X124626661Y-119234531D01*
X124651116Y-119239010D01*
X124684639Y-119213224D01*
X124702315Y-119176926D01*
X124717259Y-119133327D01*
X124729564Y-119088189D01*
X124732009Y-119078200D01*
X124740643Y-119038761D01*
X124749277Y-118993618D01*
X124756678Y-118950385D01*
X124762845Y-118911156D01*
X124769012Y-118869018D01*
X124771479Y-118851348D01*
X124784766Y-118770454D01*
X124789574Y-118731559D01*
X124791793Y-118692373D01*
X124791800Y-118690343D01*
X124776580Y-118654325D01*
X124775582Y-118653413D01*
X124739163Y-118638816D01*
X124736308Y-118638759D01*
X124699502Y-118652236D01*
X124684724Y-118681355D01*
X124677518Y-118721946D01*
X124673196Y-118760099D01*
X124664989Y-118839624D01*
X124632554Y-119081913D01*
X124617243Y-119039552D01*
X124601791Y-118995610D01*
X124586199Y-118950086D01*
X124570467Y-118902981D01*
X124554594Y-118854294D01*
X124542598Y-118816741D01*
X124530522Y-118778299D01*
X124518367Y-118738966D01*
X124506133Y-118698745D01*
X124488713Y-118662191D01*
X124456272Y-118640223D01*
X124442826Y-118638759D01*
X124406434Y-118655514D01*
X124387152Y-118693802D01*
X124384012Y-118705779D01*
X124375417Y-118746658D01*
X124367941Y-118785891D01*
X124360982Y-118824698D01*
X124353515Y-118868286D01*
X124348255Y-118900001D01*
X124341535Y-118941091D01*
X124333787Y-118986520D01*
X124326382Y-119027718D01*
X124318176Y-119070434D01*
X124309371Y-119112199D01*
X124269316Y-118965458D01*
X124198387Y-118671194D01*
X124170642Y-118641324D01*
X124151102Y-118638759D01*
X124113195Y-118652154D01*
X124111046Y-118654000D01*
X124093868Y-118689396D01*
X124093852Y-118690734D01*
X124099323Y-118715353D01*
G37*
G36*
X123753139Y-118639585D02*
G01*
X123798280Y-118646193D01*
X123840934Y-118659410D01*
X123881101Y-118679235D01*
X123918782Y-118705668D01*
X123948283Y-118732743D01*
X123969715Y-118756841D01*
X123996506Y-118795243D01*
X124016866Y-118836351D01*
X124030797Y-118880166D01*
X124037495Y-118918746D01*
X124039727Y-118959205D01*
X124039673Y-118967879D01*
X124037776Y-119009134D01*
X124031924Y-119053993D01*
X124022169Y-119093782D01*
X124005858Y-119133796D01*
X123984235Y-119166909D01*
X123959728Y-119191412D01*
X123924937Y-119213592D01*
X123883470Y-119228871D01*
X123842613Y-119236475D01*
X123796852Y-119239010D01*
X123768697Y-119235532D01*
X123729832Y-119223183D01*
X123708925Y-119214329D01*
X123671617Y-119195931D01*
X123636824Y-119176484D01*
X123625980Y-119192695D01*
X123600090Y-119223378D01*
X123595076Y-119228407D01*
X123562184Y-119251515D01*
X123526427Y-119237056D01*
X123510990Y-119200713D01*
X123514312Y-119191334D01*
X123526817Y-119162025D01*
X123533726Y-119144564D01*
X123548917Y-119104388D01*
X123559610Y-119070580D01*
X123658709Y-119070580D01*
X123679492Y-119086662D01*
X123714200Y-119108877D01*
X123723634Y-119112999D01*
X123763471Y-119123561D01*
X123803691Y-119126463D01*
X123830111Y-119124490D01*
X123868268Y-119111928D01*
X123899434Y-119085235D01*
X123901394Y-119082618D01*
X123920055Y-119044933D01*
X123928764Y-119004671D01*
X123931284Y-118961550D01*
X123927424Y-118921250D01*
X123915847Y-118883392D01*
X123896552Y-118847977D01*
X123869539Y-118815004D01*
X123837116Y-118787136D01*
X123801786Y-118767230D01*
X123763550Y-118755287D01*
X123722407Y-118751306D01*
X123699155Y-118755800D01*
X123664375Y-118769868D01*
X123667208Y-118784022D01*
X123673363Y-118823993D01*
X123674207Y-118831840D01*
X123676294Y-118871083D01*
X123675195Y-118908391D01*
X123672430Y-118947907D01*
X123668721Y-118986884D01*
X123663775Y-119030573D01*
X123658709Y-119070580D01*
X123559610Y-119070580D01*
X123561402Y-119064914D01*
X123566600Y-119037299D01*
X123570117Y-118996706D01*
X123570781Y-118956665D01*
X123570360Y-118916608D01*
X123569300Y-118873485D01*
X123567459Y-118833762D01*
X123565033Y-118803902D01*
X123558862Y-118764593D01*
X123547725Y-118738214D01*
X123556544Y-118709648D01*
X123586284Y-118681960D01*
X123622365Y-118663574D01*
X123647801Y-118653905D01*
X123688838Y-118642854D01*
X123729637Y-118638759D01*
X123753139Y-118639585D01*
G37*
G36*
X123050642Y-118745053D02*
G01*
X123077997Y-118744076D01*
X123105157Y-118742904D01*
X123145809Y-118746875D01*
X123179797Y-118751306D01*
X123169441Y-119069799D01*
X123168855Y-119093441D01*
X123168269Y-119120992D01*
X123169640Y-119161100D01*
X123178244Y-119201668D01*
X123202716Y-119233363D01*
X123225910Y-119239010D01*
X123263188Y-119225807D01*
X123264207Y-119224942D01*
X123280425Y-119189771D01*
X123279618Y-119149679D01*
X123278862Y-119128221D01*
X123277440Y-119088551D01*
X123277103Y-119066672D01*
X123288046Y-118751306D01*
X123327524Y-118748877D01*
X123367328Y-118745649D01*
X123410167Y-118741732D01*
X123446803Y-118724586D01*
X123459016Y-118686435D01*
X123446819Y-118648679D01*
X123444166Y-118645598D01*
X123407692Y-118629396D01*
X123406259Y-118629380D01*
X123290976Y-118638759D01*
X123291969Y-118598199D01*
X123293517Y-118567049D01*
X123295346Y-118526358D01*
X123295861Y-118502178D01*
X123280034Y-118465639D01*
X123242390Y-118451194D01*
X123240956Y-118451180D01*
X123203529Y-118468182D01*
X123186695Y-118506265D01*
X123183119Y-118528556D01*
X123181580Y-118568734D01*
X123181556Y-118575451D01*
X123182533Y-118606128D01*
X123183119Y-118638759D01*
X123143140Y-118633753D01*
X123105157Y-118629966D01*
X123065187Y-118630869D01*
X123030321Y-118635437D01*
X123000856Y-118663182D01*
X122996908Y-118688193D01*
X123009425Y-118725949D01*
X123012149Y-118729031D01*
X123049184Y-118745038D01*
X123050642Y-118745053D01*
G37*
G36*
X122642463Y-119239010D02*
G01*
X122683422Y-119236688D01*
X122727875Y-119228110D01*
X122768736Y-119213212D01*
X122806008Y-119191993D01*
X122830432Y-119172967D01*
X122861267Y-119140506D01*
X122884528Y-119103820D01*
X122900216Y-119062907D01*
X122907635Y-119024476D01*
X122909567Y-118990078D01*
X122906956Y-118949244D01*
X122899125Y-118907930D01*
X122886074Y-118866134D01*
X122867801Y-118823858D01*
X122848586Y-118788261D01*
X122835317Y-118766742D01*
X122809039Y-118729872D01*
X122781740Y-118699251D01*
X122747634Y-118670755D01*
X122712058Y-118651257D01*
X122668694Y-118639884D01*
X122649497Y-118638759D01*
X122607383Y-118642413D01*
X122565593Y-118652184D01*
X122529134Y-118664746D01*
X122492376Y-118682381D01*
X122461197Y-118707034D01*
X122445197Y-118743419D01*
X122445115Y-118746421D01*
X122458134Y-118783663D01*
X122458988Y-118784718D01*
X122492986Y-118801327D01*
X122520732Y-118792534D01*
X122543398Y-118775144D01*
X122579670Y-118758848D01*
X122619242Y-118752447D01*
X122649497Y-118751306D01*
X122687912Y-118762065D01*
X122719137Y-118786874D01*
X122746736Y-118821019D01*
X122760481Y-118842360D01*
X122779972Y-118877796D01*
X122796385Y-118915684D01*
X122807376Y-118954980D01*
X122810502Y-118986951D01*
X122804661Y-119029031D01*
X122787136Y-119064462D01*
X122761067Y-119090901D01*
X122726248Y-119111148D01*
X122685194Y-119122990D01*
X122642463Y-119126463D01*
X122601734Y-119120057D01*
X122572121Y-119108291D01*
X122508422Y-119073120D01*
X122484780Y-119063937D01*
X122449609Y-119081327D01*
X122434817Y-119118204D01*
X122434759Y-119120992D01*
X122450953Y-119157911D01*
X122482349Y-119183640D01*
X122519364Y-119203839D01*
X122559121Y-119220841D01*
X122598581Y-119233205D01*
X122639385Y-119238976D01*
X122642463Y-119239010D01*
G37*
G36*
X121855610Y-119239010D02*
G01*
X121892510Y-119224407D01*
X121906803Y-119197586D01*
X121915908Y-119158605D01*
X121923075Y-119118061D01*
X121929199Y-119075306D01*
X121929860Y-119070189D01*
X121934583Y-119027917D01*
X121938017Y-118986205D01*
X121939591Y-118946713D01*
X121939630Y-118940252D01*
X121938428Y-118900628D01*
X121938262Y-118897070D01*
X121936915Y-118857683D01*
X121936894Y-118853888D01*
X121939363Y-118813917D01*
X121951453Y-118773846D01*
X121985305Y-118751406D01*
X121988478Y-118751306D01*
X122030728Y-118757507D01*
X122070040Y-118776112D01*
X122102908Y-118803460D01*
X122113335Y-118814809D01*
X122137350Y-118847461D01*
X122159185Y-118882878D01*
X122178432Y-118916899D01*
X122190321Y-118938884D01*
X122190595Y-118989553D01*
X122191420Y-119034774D01*
X122192793Y-119074549D01*
X122195284Y-119116608D01*
X122199405Y-119155846D01*
X122207906Y-119191725D01*
X122233842Y-119221614D01*
X122255778Y-119226505D01*
X122293101Y-119213110D01*
X122295247Y-119211264D01*
X122312230Y-119175305D01*
X122312247Y-119173944D01*
X122307362Y-119149910D01*
X122302725Y-119109406D01*
X122301304Y-119070189D01*
X122299546Y-118989296D01*
X122297983Y-118587370D01*
X122295758Y-118545997D01*
X122294212Y-118506473D01*
X122294075Y-118496121D01*
X122297042Y-118455967D01*
X122299351Y-118443364D01*
X122304374Y-118403279D01*
X122304626Y-118391585D01*
X122289773Y-118354626D01*
X122288799Y-118353678D01*
X122252403Y-118338692D01*
X122249525Y-118338633D01*
X122212156Y-118351703D01*
X122196769Y-118384942D01*
X122191202Y-118424859D01*
X122188381Y-118464097D01*
X122188171Y-118477168D01*
X122188693Y-118519300D01*
X122190089Y-118559079D01*
X122191884Y-118592450D01*
X122193706Y-118632624D01*
X122194604Y-118673353D01*
X122194619Y-118710859D01*
X122194033Y-118759122D01*
X122168165Y-118727571D01*
X122138298Y-118698170D01*
X122104079Y-118672705D01*
X122097704Y-118668849D01*
X122061635Y-118651718D01*
X122020602Y-118641139D01*
X121988674Y-118638759D01*
X121946627Y-118642459D01*
X121907879Y-118655468D01*
X121875448Y-118680907D01*
X121863426Y-118697963D01*
X121848194Y-118737320D01*
X121840629Y-118777332D01*
X121836682Y-118820450D01*
X121835875Y-118838452D01*
X121831381Y-118943183D01*
X121820439Y-119057489D01*
X121814785Y-119099749D01*
X121808299Y-119138408D01*
X121801681Y-119170427D01*
X121799532Y-119186254D01*
X121815119Y-119223017D01*
X121816140Y-119223965D01*
X121852754Y-119238951D01*
X121855610Y-119239010D01*
G37*
G36*
X121564277Y-118501201D02*
G01*
X121602498Y-118490366D01*
X121610000Y-118484788D01*
X121628980Y-118449229D01*
X121629148Y-118444928D01*
X121613422Y-118408400D01*
X121610000Y-118405263D01*
X121573922Y-118389238D01*
X121564277Y-118388654D01*
X121526314Y-118399618D01*
X121518946Y-118405263D01*
X121500159Y-118440628D01*
X121499993Y-118444928D01*
X121515559Y-118481616D01*
X121518946Y-118484788D01*
X121556215Y-118500800D01*
X121564277Y-118501201D01*
G37*
G36*
X121539462Y-118957447D02*
G01*
X121539023Y-118999212D01*
X121538116Y-119041500D01*
X121537704Y-119057684D01*
X121536591Y-119099701D01*
X121535872Y-119139237D01*
X121535750Y-119158117D01*
X121547946Y-119195358D01*
X121550600Y-119198368D01*
X121586687Y-119213938D01*
X121589678Y-119214000D01*
X121626429Y-119200261D01*
X121628367Y-119198368D01*
X121643353Y-119161159D01*
X121643412Y-119158117D01*
X121643900Y-119116205D01*
X121644908Y-119073871D01*
X121645366Y-119057684D01*
X121646478Y-119015690D01*
X121647198Y-118976241D01*
X121647320Y-118957447D01*
X121646673Y-118918240D01*
X121644964Y-118877269D01*
X121642511Y-118836054D01*
X121641849Y-118826337D01*
X121639110Y-118784209D01*
X121637118Y-118742222D01*
X121636204Y-118701899D01*
X121636182Y-118695228D01*
X121623826Y-118657405D01*
X121621137Y-118654390D01*
X121583906Y-118638774D01*
X121582449Y-118638759D01*
X121545675Y-118652497D01*
X121543761Y-118654390D01*
X121528654Y-118690586D01*
X121528520Y-118695228D01*
X121529167Y-118734434D01*
X121530876Y-118775406D01*
X121533329Y-118816620D01*
X121533991Y-118826337D01*
X121536636Y-118868465D01*
X121538559Y-118910452D01*
X121539441Y-118950775D01*
X121539462Y-118957447D01*
G37*
G36*
X120934326Y-119239010D02*
G01*
X120972931Y-119225224D01*
X120987669Y-119190161D01*
X121003105Y-119076247D01*
X121007443Y-119035369D01*
X121009981Y-118996293D01*
X121010725Y-118962332D01*
X121009229Y-118921470D01*
X121008771Y-118913092D01*
X121006972Y-118873414D01*
X121006817Y-118863658D01*
X121008921Y-118819880D01*
X121017808Y-118779394D01*
X121045457Y-118751745D01*
X121050781Y-118751306D01*
X121092450Y-118759687D01*
X121129208Y-118781852D01*
X121157846Y-118809558D01*
X121168408Y-118822234D01*
X121192332Y-118856611D01*
X121213496Y-118895263D01*
X121229750Y-118932589D01*
X121243891Y-118973188D01*
X121247543Y-118985388D01*
X121251066Y-119026139D01*
X121252428Y-119037558D01*
X121255542Y-119076540D01*
X121255750Y-119089143D01*
X121253206Y-119129449D01*
X121252428Y-119137210D01*
X121249265Y-119177381D01*
X121249106Y-119185081D01*
X121262501Y-119222072D01*
X121264347Y-119223965D01*
X121301566Y-119238995D01*
X121303035Y-119239010D01*
X121340221Y-119225787D01*
X121342114Y-119223965D01*
X121356711Y-119187683D01*
X121356769Y-119184690D01*
X121359611Y-119144235D01*
X121360481Y-119136428D01*
X121363778Y-119097080D01*
X121363998Y-119087970D01*
X121363075Y-119044897D01*
X121360945Y-119002134D01*
X121358014Y-118958439D01*
X121356182Y-118934586D01*
X121353061Y-118893710D01*
X121350432Y-118851988D01*
X121348672Y-118811414D01*
X121348171Y-118781006D01*
X121349562Y-118740166D01*
X121350125Y-118730008D01*
X121351745Y-118689996D01*
X121351884Y-118679010D01*
X121337214Y-118642028D01*
X121336252Y-118641103D01*
X121298998Y-118626268D01*
X121297564Y-118626254D01*
X121260123Y-118642182D01*
X121243858Y-118681755D01*
X121241877Y-118698745D01*
X121240314Y-118763811D01*
X121211369Y-118727785D01*
X121182176Y-118697866D01*
X121146817Y-118670022D01*
X121111101Y-118650971D01*
X121068981Y-118639858D01*
X121050781Y-118638759D01*
X121010151Y-118643399D01*
X120972413Y-118659714D01*
X120943113Y-118687775D01*
X120928269Y-118713009D01*
X120914554Y-118752605D01*
X120907111Y-118793349D01*
X120903350Y-118835872D01*
X120902477Y-118859359D01*
X120902477Y-118912506D01*
X120903063Y-118961550D01*
X120901128Y-119001304D01*
X120896468Y-119041491D01*
X120891339Y-119074488D01*
X120885054Y-119115181D01*
X120880829Y-119154081D01*
X120879420Y-119186840D01*
X120894090Y-119223639D01*
X120895052Y-119224551D01*
X120931402Y-119238953D01*
X120934326Y-119239010D01*
G37*
G36*
X120506945Y-118639130D02*
G01*
X120551529Y-118643312D01*
X120593003Y-118652140D01*
X120631366Y-118665615D01*
X120666619Y-118683735D01*
X120698762Y-118706502D01*
X120727794Y-118733916D01*
X120733036Y-118739762D01*
X120760989Y-118777241D01*
X120779708Y-118811622D01*
X120794267Y-118848865D01*
X120804667Y-118888970D01*
X120810906Y-118931938D01*
X120812986Y-118977768D01*
X120812012Y-119004723D01*
X120805621Y-119048795D01*
X120793264Y-119088920D01*
X120774943Y-119125101D01*
X120750655Y-119157335D01*
X120742719Y-119165711D01*
X120708073Y-119193811D01*
X120668787Y-119213265D01*
X120630604Y-119223195D01*
X120588869Y-119226505D01*
X120569504Y-119225406D01*
X120530423Y-119215483D01*
X120495275Y-119195242D01*
X120468404Y-119170054D01*
X120444212Y-119137478D01*
X120424542Y-119101452D01*
X120425637Y-119143754D01*
X120428549Y-119189806D01*
X120433207Y-119230720D01*
X120440846Y-119271958D01*
X120452484Y-119310524D01*
X120463566Y-119334411D01*
X120487868Y-119368691D01*
X120518416Y-119393396D01*
X120555209Y-119408527D01*
X120598248Y-119414083D01*
X120622305Y-119414073D01*
X120661328Y-119411618D01*
X120700439Y-119405486D01*
X120726684Y-119400437D01*
X120766287Y-119395912D01*
X120803640Y-119411021D01*
X120814159Y-119449450D01*
X120810849Y-119469698D01*
X120784370Y-119500376D01*
X120744989Y-119515297D01*
X120741864Y-119515995D01*
X120700795Y-119522635D01*
X120661533Y-119525734D01*
X120622281Y-119526630D01*
X120592032Y-119525818D01*
X120550092Y-119521555D01*
X120506372Y-119511962D01*
X120468262Y-119497394D01*
X120431577Y-119474655D01*
X120406261Y-119450182D01*
X120382189Y-119415527D01*
X120364710Y-119378389D01*
X120352442Y-119341006D01*
X120347902Y-119322633D01*
X120340306Y-119282039D01*
X120335283Y-119242313D01*
X120331774Y-119198660D01*
X120329972Y-119158117D01*
X120317271Y-118970343D01*
X120314547Y-118945315D01*
X120308730Y-118904740D01*
X120302421Y-118865221D01*
X120298503Y-118841183D01*
X120293099Y-118798794D01*
X120292169Y-118781983D01*
X120399141Y-118781983D01*
X120399970Y-118789176D01*
X120404870Y-118829797D01*
X120410431Y-118871683D01*
X120416579Y-118912295D01*
X120423956Y-118952171D01*
X120433215Y-118987885D01*
X120452124Y-119023830D01*
X120477690Y-119056707D01*
X120507393Y-119084382D01*
X120544368Y-119105907D01*
X120585547Y-119113958D01*
X120603680Y-119113066D01*
X120643950Y-119102397D01*
X120676210Y-119077419D01*
X120693453Y-119047893D01*
X120703539Y-119009824D01*
X120706496Y-118967803D01*
X120704047Y-118929338D01*
X120695248Y-118889157D01*
X120680050Y-118853006D01*
X120655303Y-118817154D01*
X120647986Y-118809180D01*
X120615007Y-118782429D01*
X120576093Y-118763910D01*
X120537174Y-118754457D01*
X120493712Y-118751306D01*
X120484315Y-118751574D01*
X120444863Y-118758926D01*
X120434595Y-118762567D01*
X120399141Y-118781983D01*
X120292169Y-118781983D01*
X120290893Y-118758926D01*
X120292329Y-118740200D01*
X120311627Y-118704210D01*
X120349706Y-118692492D01*
X120367180Y-118672841D01*
X120402463Y-118652241D01*
X120406851Y-118650608D01*
X120446626Y-118641339D01*
X120488241Y-118638759D01*
X120506945Y-118639130D01*
G37*
G36*
X119392665Y-118889450D02*
G01*
X119392553Y-118929873D01*
X119392307Y-118971815D01*
X119392079Y-119003169D01*
X119391796Y-119042815D01*
X119391575Y-119083128D01*
X119391493Y-119116889D01*
X119389734Y-119152255D01*
X119387780Y-119187426D01*
X119402817Y-119223639D01*
X119403803Y-119224551D01*
X119441252Y-119238996D01*
X119442686Y-119239010D01*
X119480619Y-119227696D01*
X119496615Y-119203253D01*
X119536862Y-119220538D01*
X119575441Y-119231153D01*
X119616657Y-119237299D01*
X119654884Y-119239010D01*
X119697421Y-119235957D01*
X119738657Y-119225546D01*
X119774075Y-119207747D01*
X119804955Y-119180364D01*
X119825860Y-119145500D01*
X119836210Y-119107314D01*
X119842346Y-119063503D01*
X119847442Y-119021219D01*
X119851497Y-118980461D01*
X119854513Y-118941229D01*
X119856759Y-118896166D01*
X119857508Y-118853302D01*
X119856210Y-118810243D01*
X119852876Y-118769244D01*
X119847490Y-118725680D01*
X119841095Y-118685458D01*
X119822576Y-118649020D01*
X119788925Y-118638759D01*
X119751464Y-118651639D01*
X119749455Y-118653413D01*
X119733449Y-118689692D01*
X119733433Y-118691124D01*
X119736257Y-118730693D01*
X119741444Y-118769673D01*
X119746504Y-118809266D01*
X119749229Y-118848292D01*
X119749260Y-118851934D01*
X119748881Y-118894896D01*
X119747745Y-118934683D01*
X119745563Y-118975649D01*
X119743203Y-119004732D01*
X119738346Y-119045435D01*
X119730819Y-119085919D01*
X119725226Y-119106728D01*
X119689469Y-119121383D01*
X119654884Y-119126463D01*
X119612799Y-119124639D01*
X119569416Y-119119168D01*
X119529763Y-119111242D01*
X119499351Y-119103406D01*
X119499741Y-118994181D01*
X119500914Y-118889840D01*
X119500550Y-118847388D01*
X119499457Y-118807079D01*
X119497263Y-118762760D01*
X119494077Y-118721359D01*
X119490558Y-118688193D01*
X119474193Y-118651117D01*
X119437215Y-118638759D01*
X119399754Y-118651810D01*
X119397745Y-118653609D01*
X119382700Y-118690343D01*
X119392665Y-118889450D01*
G37*
D11*
X131054819Y-100288095D02*
X131864342Y-100288095D01*
X131864342Y-100288095D02*
X131959580Y-100335714D01*
X131959580Y-100335714D02*
X132007200Y-100383333D01*
X132007200Y-100383333D02*
X132054819Y-100478571D01*
X132054819Y-100478571D02*
X132054819Y-100669047D01*
X132054819Y-100669047D02*
X132007200Y-100764285D01*
X132007200Y-100764285D02*
X131959580Y-100811904D01*
X131959580Y-100811904D02*
X131864342Y-100859523D01*
X131864342Y-100859523D02*
X131054819Y-100859523D01*
X132054819Y-101859523D02*
X132054819Y-101288095D01*
X132054819Y-101573809D02*
X131054819Y-101573809D01*
X131054819Y-101573809D02*
X131197676Y-101478571D01*
X131197676Y-101478571D02*
X131292914Y-101383333D01*
X131292914Y-101383333D02*
X131340533Y-101288095D01*
D12*
%TO.C,R6*%
X123220000Y-116653641D02*
X123220000Y-116346359D01*
X123980000Y-116653641D02*
X123980000Y-116346359D01*
%TO.C,D1*%
X121515000Y-114962500D02*
X121515000Y-117247500D01*
X122985000Y-114962500D02*
X121515000Y-114962500D01*
X122985000Y-117247500D02*
X122985000Y-114962500D01*
%TO.C,U1*%
X132480000Y-97400000D02*
X132480000Y-98605000D01*
X132480000Y-105820000D02*
X132480000Y-103495000D01*
X133600000Y-96280000D02*
X132480000Y-97400000D01*
X135480000Y-96280000D02*
X133600000Y-96280000D01*
X135480000Y-105820000D02*
X132480000Y-105820000D01*
X141720000Y-96280000D02*
X144720000Y-96280000D01*
X141720000Y-105820000D02*
X144720000Y-105820000D01*
X144720000Y-96280000D02*
X144720000Y-98605000D01*
X144720000Y-105820000D02*
X144720000Y-103495000D01*
D13*
X132700000Y-96400000D02*
G75*
G02*
X132500000Y-96400000I-100000J0D01*
G01*
X132500000Y-96400000D02*
G75*
G02*
X132700000Y-96400000I100000J0D01*
G01*
%TD*%
M02*
