%TF.GenerationSoftware,KiCad,Pcbnew,8.0.9*%
%TF.CreationDate,2025-03-13T22:53:30+08:00*%
%TF.ProjectId,Raspberry_pi_IMX662,52617370-6265-4727-9279-5f70695f494d,rev?*%
%TF.SameCoordinates,Original*%
%TF.FileFunction,Soldermask,Top*%
%TF.FilePolarity,Negative*%
%FSLAX46Y46*%
G04 Gerber Fmt 4.6, Leading zero omitted, Abs format (unit mm)*
G04 Created by KiCad (PCBNEW 8.0.9) date 2025-03-13 22:53:30*
%MOMM*%
%LPD*%
G01*
G04 APERTURE LIST*
G04 Aperture macros list*
%AMRoundRect*
0 Rectangle with rounded corners*
0 $1 Rounding radius*
0 $2 $3 $4 $5 $6 $7 $8 $9 X,Y pos of 4 corners*
0 Add a 4 corners polygon primitive as box body*
4,1,4,$2,$3,$4,$5,$6,$7,$8,$9,$2,$3,0*
0 Add four circle primitives for the rounded corners*
1,1,$1+$1,$2,$3*
1,1,$1+$1,$4,$5*
1,1,$1+$1,$6,$7*
1,1,$1+$1,$8,$9*
0 Add four rect primitives between the rounded corners*
20,1,$1+$1,$2,$3,$4,$5,0*
20,1,$1+$1,$4,$5,$6,$7,0*
20,1,$1+$1,$6,$7,$8,$9,0*
20,1,$1+$1,$8,$9,$2,$3,0*%
G04 Aperture macros list end*
%ADD10RoundRect,0.218750X-0.381250X0.218750X-0.381250X-0.218750X0.381250X-0.218750X0.381250X0.218750X0*%
%ADD11RoundRect,0.140000X-0.140000X-0.170000X0.140000X-0.170000X0.140000X0.170000X-0.140000X0.170000X0*%
%ADD12C,6.400000*%
%ADD13RoundRect,0.140000X0.170000X-0.140000X0.170000X0.140000X-0.170000X0.140000X-0.170000X-0.140000X0*%
%ADD14RoundRect,0.225000X-0.250000X0.225000X-0.250000X-0.225000X0.250000X-0.225000X0.250000X0.225000X0*%
%ADD15R,0.610000X2.000000*%
%ADD16R,2.680000X3.600000*%
%ADD17RoundRect,0.135000X-0.135000X-0.185000X0.135000X-0.185000X0.135000X0.185000X-0.135000X0.185000X0*%
%ADD18RoundRect,0.100000X0.637500X0.100000X-0.637500X0.100000X-0.637500X-0.100000X0.637500X-0.100000X0*%
%ADD19RoundRect,0.135000X0.135000X0.185000X-0.135000X0.185000X-0.135000X-0.185000X0.135000X-0.185000X0*%
%ADD20RoundRect,0.225000X-0.225000X-0.250000X0.225000X-0.250000X0.225000X0.250000X-0.225000X0.250000X0*%
%ADD21RoundRect,0.225000X0.225000X0.250000X-0.225000X0.250000X-0.225000X-0.250000X0.225000X-0.250000X0*%
%ADD22RoundRect,0.135000X0.185000X-0.135000X0.185000X0.135000X-0.185000X0.135000X-0.185000X-0.135000X0*%
%ADD23RoundRect,0.140000X-0.170000X0.140000X-0.170000X-0.140000X0.170000X-0.140000X0.170000X0.140000X0*%
%ADD24C,4.400000*%
%ADD25R,1.100000X1.300000*%
%ADD26RoundRect,0.225000X0.250000X-0.225000X0.250000X0.225000X-0.250000X0.225000X-0.250000X-0.225000X0*%
%ADD27RoundRect,0.150000X-0.150000X0.512500X-0.150000X-0.512500X0.150000X-0.512500X0.150000X0.512500X0*%
%ADD28RoundRect,0.140000X0.140000X0.170000X-0.140000X0.170000X-0.140000X-0.170000X0.140000X-0.170000X0*%
G04 APERTURE END LIST*
D10*
%TO.C,FB1*%
X128700000Y-107337500D03*
X128700000Y-109462500D03*
%TD*%
D11*
%TO.C,C17*%
X132870000Y-99100000D03*
X133830000Y-99100000D03*
%TD*%
%TO.C,C24*%
X132870000Y-100050000D03*
X133830000Y-100050000D03*
%TD*%
D12*
%TO.C,H6*%
X154900000Y-117350000D03*
%TD*%
D13*
%TO.C,C16*%
X135400000Y-104780000D03*
X135400000Y-103820000D03*
%TD*%
D14*
%TO.C,C26*%
X144700000Y-94775000D03*
X144700000Y-96325000D03*
%TD*%
D15*
%TO.C,J2*%
X131600000Y-114200000D03*
X132600000Y-114200000D03*
X133600000Y-114200000D03*
X134600000Y-114200000D03*
X135600000Y-114200000D03*
X136600000Y-114200000D03*
X137600000Y-114200000D03*
X138600000Y-114200000D03*
X139600000Y-114200000D03*
X140600000Y-114200000D03*
X141600000Y-114200000D03*
X142600000Y-114200000D03*
X143600000Y-114200000D03*
X144600000Y-114200000D03*
X145600000Y-114200000D03*
D16*
X128610000Y-117000000D03*
X148590000Y-117000000D03*
%TD*%
D17*
%TO.C,R3*%
X140840000Y-105650000D03*
X141860000Y-105650000D03*
%TD*%
D18*
%TO.C,U3*%
X136562500Y-111400000D03*
X136562500Y-110750000D03*
X136562500Y-110100000D03*
X136562500Y-109450000D03*
X136562500Y-108800000D03*
X136562500Y-108150000D03*
X136562500Y-107500000D03*
X130837500Y-107500000D03*
X130837500Y-108150000D03*
X130837500Y-108800000D03*
X130837500Y-109450000D03*
X130837500Y-110100000D03*
X130837500Y-110750000D03*
X130837500Y-111400000D03*
%TD*%
D19*
%TO.C,R2*%
X138960000Y-103600000D03*
X137940000Y-103600000D03*
%TD*%
D11*
%TO.C,C11*%
X140900000Y-102150000D03*
X141860000Y-102150000D03*
%TD*%
D13*
%TO.C,C13*%
X142750000Y-105580000D03*
X142750000Y-104620000D03*
%TD*%
D20*
%TO.C,C30*%
X133225000Y-105950000D03*
X134775000Y-105950000D03*
%TD*%
D11*
%TO.C,C12*%
X140920000Y-99850000D03*
X141880000Y-99850000D03*
%TD*%
D21*
%TO.C,C3*%
X135875000Y-85150000D03*
X134325000Y-85150000D03*
%TD*%
%TO.C,C9*%
X127125000Y-109500000D03*
X125575000Y-109500000D03*
%TD*%
D22*
%TO.C,R1*%
X137000000Y-104760000D03*
X137000000Y-103740000D03*
%TD*%
D23*
%TO.C,C8*%
X141750000Y-96470000D03*
X141750000Y-97430000D03*
%TD*%
D20*
%TO.C,C2*%
X135825000Y-90900000D03*
X137375000Y-90900000D03*
%TD*%
D11*
%TO.C,C19*%
X132870000Y-101400000D03*
X133830000Y-101400000D03*
%TD*%
%TO.C,C21*%
X132850000Y-102350000D03*
X133810000Y-102350000D03*
%TD*%
D23*
%TO.C,C10*%
X140820000Y-96470000D03*
X140820000Y-97430000D03*
%TD*%
D21*
%TO.C,C4*%
X144725000Y-85050000D03*
X143175000Y-85050000D03*
%TD*%
D24*
%TO.C,H2*%
X127600000Y-101050000D03*
%TD*%
D22*
%TO.C,R5*%
X139950000Y-106610000D03*
X139950000Y-105590000D03*
%TD*%
D20*
%TO.C,C6*%
X144725000Y-90800000D03*
X146275000Y-90800000D03*
%TD*%
D17*
%TO.C,R4*%
X140340000Y-104550000D03*
X141360000Y-104550000D03*
%TD*%
D24*
%TO.C,H1*%
X149600000Y-101050000D03*
%TD*%
D21*
%TO.C,C5*%
X142775000Y-90800000D03*
X141225000Y-90800000D03*
%TD*%
%TO.C,C1*%
X133875000Y-90950000D03*
X132325000Y-90950000D03*
%TD*%
D25*
%TO.C,X1*%
X146425000Y-94650000D03*
X146425000Y-96750000D03*
X148075000Y-96750000D03*
X148075000Y-94650000D03*
%TD*%
D11*
%TO.C,C20*%
X132870000Y-103300000D03*
X133830000Y-103300000D03*
%TD*%
D21*
%TO.C,C7*%
X127125000Y-107350000D03*
X125575000Y-107350000D03*
%TD*%
D11*
%TO.C,C14*%
X140920000Y-101200000D03*
X141880000Y-101200000D03*
%TD*%
D26*
%TO.C,C15*%
X138850000Y-100425000D03*
X138850000Y-98875000D03*
%TD*%
D14*
%TO.C,C22*%
X131600000Y-103325000D03*
X131600000Y-104875000D03*
%TD*%
D13*
%TO.C,C29*%
X137150000Y-99130000D03*
X137150000Y-98170000D03*
%TD*%
D11*
%TO.C,C27*%
X140920000Y-103100000D03*
X141880000Y-103100000D03*
%TD*%
D27*
%TO.C,U2*%
X135800000Y-86950000D03*
X134850000Y-86950000D03*
X133900000Y-86950000D03*
X133900000Y-89225000D03*
X135800000Y-89225000D03*
%TD*%
D12*
%TO.C,H5*%
X122300000Y-84750000D03*
%TD*%
D21*
%TO.C,C23*%
X136975000Y-100650000D03*
X135425000Y-100650000D03*
%TD*%
D27*
%TO.C,U4*%
X144700000Y-86825000D03*
X143750000Y-86825000D03*
X142800000Y-86825000D03*
X142800000Y-89100000D03*
X144700000Y-89100000D03*
%TD*%
D26*
%TO.C,C18*%
X131500000Y-99075000D03*
X131500000Y-97525000D03*
%TD*%
D28*
%TO.C,C28*%
X136280000Y-102200000D03*
X135320000Y-102200000D03*
%TD*%
D11*
%TO.C,C25*%
X132870000Y-98150000D03*
X133830000Y-98150000D03*
%TD*%
M02*
