%TF.GenerationSoftware,KiCad,Pcbnew,8.0.9*%
%TF.CreationDate,2025-03-13T22:53:30+08:00*%
%TF.ProjectId,Raspberry_pi_IMX662,52617370-6265-4727-9279-5f70695f494d,rev?*%
%TF.SameCoordinates,Original*%
%TF.FileFunction,Copper,L4,Bot*%
%TF.FilePolarity,Positive*%
%FSLAX46Y46*%
G04 Gerber Fmt 4.6, Leading zero omitted, Abs format (unit mm)*
G04 Created by KiCad (PCBNEW 8.0.9) date 2025-03-13 22:53:30*
%MOMM*%
%LPD*%
G01*
G04 APERTURE LIST*
G04 Aperture macros list*
%AMRoundRect*
0 Rectangle with rounded corners*
0 $1 Rounding radius*
0 $2 $3 $4 $5 $6 $7 $8 $9 X,Y pos of 4 corners*
0 Add a 4 corners polygon primitive as box body*
4,1,4,$2,$3,$4,$5,$6,$7,$8,$9,$2,$3,0*
0 Add four circle primitives for the rounded corners*
1,1,$1+$1,$2,$3*
1,1,$1+$1,$4,$5*
1,1,$1+$1,$6,$7*
1,1,$1+$1,$8,$9*
0 Add four rect primitives between the rounded corners*
20,1,$1+$1,$2,$3,$4,$5,0*
20,1,$1+$1,$4,$5,$6,$7,0*
20,1,$1+$1,$6,$7,$8,$9,0*
20,1,$1+$1,$8,$9,$2,$3,0*%
G04 Aperture macros list end*
%TA.AperFunction,ComponentPad*%
%ADD10C,6.400000*%
%TD*%
%TA.AperFunction,ComponentPad*%
%ADD11C,4.400000*%
%TD*%
%TA.AperFunction,SMDPad,CuDef*%
%ADD12RoundRect,0.135000X-0.185000X0.135000X-0.185000X-0.135000X0.185000X-0.135000X0.185000X0.135000X0*%
%TD*%
%TA.AperFunction,SMDPad,CuDef*%
%ADD13RoundRect,0.218750X-0.256250X0.218750X-0.256250X-0.218750X0.256250X-0.218750X0.256250X0.218750X0*%
%TD*%
%TA.AperFunction,SMDPad,CuDef*%
%ADD14C,0.400000*%
%TD*%
%TA.AperFunction,ViaPad*%
%ADD15C,0.450000*%
%TD*%
%TA.AperFunction,Conductor*%
%ADD16C,0.200000*%
%TD*%
%TA.AperFunction,Conductor*%
%ADD17C,0.156000*%
%TD*%
%TA.AperFunction,Conductor*%
%ADD18C,0.127000*%
%TD*%
G04 APERTURE END LIST*
D10*
%TO.P,H6,1,1*%
%TO.N,unconnected-(H6-Pad1)*%
X154900000Y-117350000D03*
%TD*%
D11*
%TO.P,H2,1,1*%
%TO.N,GND*%
X127600000Y-101050000D03*
%TD*%
%TO.P,H1,1,1*%
%TO.N,GND*%
X149600000Y-101050000D03*
%TD*%
D10*
%TO.P,H5,1,1*%
%TO.N,GND*%
X122300000Y-84750000D03*
%TD*%
D12*
%TO.P,R6,1*%
%TO.N,Net-(D1-A)*%
X123600000Y-115990000D03*
%TO.P,R6,2*%
%TO.N,LED*%
X123600000Y-117010000D03*
%TD*%
D13*
%TO.P,D1,1,K*%
%TO.N,GND*%
X122250000Y-115660000D03*
%TO.P,D1,2,A*%
%TO.N,Net-(D1-A)*%
X122250000Y-117235000D03*
%TD*%
D14*
%TO.P,U1,A3,VRHT*%
%TO.N,Net-(U1C-VRHT)*%
X133400000Y-98650000D03*
%TO.P,U1,A4,VDDHCM*%
%TO.N,3V3*%
X133400000Y-99450000D03*
%TO.P,U1,A5,VRLFR*%
%TO.N,Net-(U1C-VRLFR)*%
X133400000Y-100250000D03*
%TO.P,U1,A6,VDDHPX*%
%TO.N,3V3*%
X133400000Y-101050000D03*
%TO.P,U1,A7,VDDHCP*%
X133400000Y-101850000D03*
%TO.P,U1,A8,VDDHPX*%
X133400000Y-102650000D03*
%TO.P,U1,A9,VDDHDA*%
X133400000Y-103450000D03*
%TO.P,U1,B3,VSSHPX*%
%TO.N,GND*%
X134200000Y-98650000D03*
%TO.P,U1,B4,VSSHPX*%
X134200000Y-99450000D03*
%TO.P,U1,B5,VRLST*%
%TO.N,Net-(U1C-VRLST)*%
X134200000Y-100250000D03*
%TO.P,U1,B6,VSSHPX*%
%TO.N,GND*%
X134200000Y-101050000D03*
%TO.P,U1,B7,VSSHCP*%
X134200000Y-101850000D03*
%TO.P,U1,B8,VSSHPX*%
X134200000Y-102650000D03*
%TO.P,U1,B9,VSSHDA*%
X134200000Y-103450000D03*
%TO.P,U1,C1*%
%TO.N,N/C*%
X135000000Y-97050000D03*
%TO.P,U1,C2*%
X135000000Y-97850000D03*
%TO.P,U1,C3,VSSLSC*%
%TO.N,GND*%
X135000000Y-98650000D03*
%TO.P,U1,C4*%
%TO.N,N/C*%
X135000000Y-99450000D03*
%TO.P,U1,C5*%
X135000000Y-100250000D03*
%TO.P,U1,C6*%
X135000000Y-101050000D03*
%TO.P,U1,C7*%
X135000000Y-101850000D03*
%TO.P,U1,C8*%
X135000000Y-102650000D03*
%TO.P,U1,C9*%
X135000000Y-103450000D03*
%TO.P,U1,C10,TVMON*%
%TO.N,unconnected-(U1C-TVMON-PadC10)*%
X135000000Y-104250000D03*
%TO.P,U1,C11*%
%TO.N,N/C*%
X135000000Y-105050000D03*
%TO.P,U1,D1*%
X135800000Y-97050000D03*
%TO.P,U1,D2*%
X135800000Y-97850000D03*
%TO.P,U1,D3,VSSLSC*%
%TO.N,GND*%
X135800000Y-98650000D03*
%TO.P,U1,D4,VSSLSC*%
X135800000Y-99450000D03*
%TO.P,U1,D5*%
%TO.N,N/C*%
X135800000Y-100250000D03*
%TO.P,U1,D6*%
X135800000Y-101050000D03*
%TO.P,U1,D7*%
X135800000Y-101850000D03*
%TO.P,U1,D8,VSSLSC*%
%TO.N,GND*%
X135800000Y-102650000D03*
%TO.P,U1,D9*%
%TO.N,N/C*%
X135800000Y-103450000D03*
%TO.P,U1,D10,VSSLCN*%
%TO.N,GND*%
X135800000Y-104250000D03*
%TO.P,U1,D11,VDDLCN*%
%TO.N,1V2*%
X135800000Y-105050000D03*
%TO.P,U1,E1*%
%TO.N,N/C*%
X136600000Y-97050000D03*
%TO.P,U1,E2*%
X136600000Y-97850000D03*
%TO.P,U1,E3,VSSLSC*%
%TO.N,GND*%
X136600000Y-98650000D03*
%TO.P,U1,E4,VDDLSC*%
%TO.N,1V2*%
X136600000Y-99450000D03*
%TO.P,U1,E5*%
%TO.N,N/C*%
X136600000Y-100250000D03*
%TO.P,U1,E6*%
X136600000Y-101050000D03*
%TO.P,U1,E7*%
X136600000Y-101850000D03*
%TO.P,U1,E8,VDDLSC*%
%TO.N,1V2*%
X136600000Y-102650000D03*
%TO.P,U1,E9*%
%TO.N,N/C*%
X136600000Y-103450000D03*
%TO.P,U1,E10,VSSLSC*%
%TO.N,GND*%
X136600000Y-104250000D03*
%TO.P,U1,E11,TENABLE*%
%TO.N,unconnected-(U1C-TENABLE-PadE11)*%
X136600000Y-105050000D03*
%TO.P,U1,F1*%
%TO.N,N/C*%
X137400000Y-97050000D03*
%TO.P,U1,F2*%
X137400000Y-97850000D03*
%TO.P,U1,F10,TOUT1*%
%TO.N,unconnected-(U1C-TOUT1-PadF10)*%
X137400000Y-104250000D03*
%TO.P,U1,F11,XMASTER*%
%TO.N,Net-(U1C-XMASTER)*%
X137400000Y-105050000D03*
%TO.P,U1,G1*%
%TO.N,N/C*%
X138200000Y-97050000D03*
%TO.P,U1,G2*%
X138200000Y-97850000D03*
%TO.P,U1,G10,SCL*%
%TO.N,SCL_1V8*%
X138200000Y-104250000D03*
%TO.P,U1,G11*%
%TO.N,N/C*%
X138200000Y-105050000D03*
%TO.P,U1,H1*%
X139000000Y-97050000D03*
%TO.P,U1,H2*%
X139000000Y-97850000D03*
%TO.P,U1,H10,SDA*%
%TO.N,SDA_1V8*%
X139000000Y-104250000D03*
%TO.P,U1,H11,XVS*%
%TO.N,unconnected-(U1C-XVS-PadH11)*%
X139000000Y-105050000D03*
%TO.P,U1,J1*%
%TO.N,N/C*%
X139800000Y-97050000D03*
%TO.P,U1,J2*%
X139800000Y-97850000D03*
%TO.P,U1,J10,SLAMODE1*%
%TO.N,Net-(U1C-SLAMODE1)*%
X139800000Y-104250000D03*
%TO.P,U1,J11,TOUT0*%
%TO.N,unconnected-(U1C-TOUT0-PadJ11)*%
X139800000Y-105050000D03*
%TO.P,U1,K1*%
%TO.N,N/C*%
X140600000Y-97050000D03*
%TO.P,U1,K2*%
X140600000Y-97850000D03*
%TO.P,U1,K3,VSSLSC*%
%TO.N,GND*%
X140600000Y-98650000D03*
%TO.P,U1,K4*%
%TO.N,N/C*%
X140600000Y-99450000D03*
%TO.P,U1,K5,VDDLSC*%
%TO.N,1V2*%
X140600000Y-100250000D03*
%TO.P,U1,K6,VDDLIF*%
X140600000Y-101050000D03*
%TO.P,U1,K7,VDDLIF*%
X140600000Y-101850000D03*
%TO.P,U1,K8,VDDLSC*%
X140600000Y-102650000D03*
%TO.P,U1,K9*%
%TO.N,N/C*%
X140600000Y-103450000D03*
%TO.P,U1,K10,XCLR*%
%TO.N,Net-(U1C-XCLR)*%
X140600000Y-104250000D03*
%TO.P,U1,K11,SLAMODE0*%
%TO.N,Net-(U1C-SLAMODE0)*%
X140600000Y-105050000D03*
%TO.P,U1,L1*%
%TO.N,N/C*%
X141400000Y-97050000D03*
%TO.P,U1,L2*%
X141400000Y-97850000D03*
%TO.P,U1,L3,VSSLSC*%
%TO.N,GND*%
X141400000Y-98650000D03*
%TO.P,U1,L4*%
%TO.N,N/C*%
X141400000Y-99450000D03*
%TO.P,U1,L5,VSSLSC*%
%TO.N,GND*%
X141400000Y-100250000D03*
%TO.P,U1,L6,VSSLSC*%
X141400000Y-101050000D03*
%TO.P,U1,L7,VSSLSC*%
X141400000Y-101850000D03*
%TO.P,U1,L8,VSSLSC*%
X141400000Y-102650000D03*
%TO.P,U1,L9*%
%TO.N,N/C*%
X141400000Y-103450000D03*
%TO.P,U1,L10,XHS*%
%TO.N,unconnected-(U1C-XHS-PadL10)*%
X141400000Y-104250000D03*
%TO.P,U1,L11,VSSLSC*%
%TO.N,GND*%
X141400000Y-105050000D03*
%TO.P,U1,M1,VDDMIF*%
%TO.N,1V8*%
X142200000Y-97050000D03*
%TO.P,U1,M2,VSSLSC*%
%TO.N,GND*%
X142200000Y-97850000D03*
%TO.P,U1,M3,VSSLPL1*%
X142200000Y-98650000D03*
%TO.P,U1,M4*%
%TO.N,N/C*%
X142200000Y-99450000D03*
%TO.P,U1,M5,VSSLSC*%
%TO.N,GND*%
X142200000Y-100250000D03*
%TO.P,U1,M6,VSSLSC*%
X142200000Y-101050000D03*
%TO.P,U1,M7,VSSLSC*%
X142200000Y-101850000D03*
%TO.P,U1,M8,VSSLSC*%
X142200000Y-102650000D03*
%TO.P,U1,M9,VSSLSC*%
X142200000Y-103450000D03*
%TO.P,U1,M10,VSSLCN*%
X142200000Y-104250000D03*
%TO.P,U1,M11,VDDLCN*%
%TO.N,1V2*%
X142200000Y-105050000D03*
%TO.P,U1,N3,VSSLPL2*%
%TO.N,GND*%
X143000000Y-98650000D03*
%TO.P,U1,N4*%
%TO.N,N/C*%
X143000000Y-99450000D03*
%TO.P,U1,N5,DMO3P*%
%TO.N,unconnected-(U1B-DMO3P-PadN5)*%
X143000000Y-100250000D03*
%TO.P,U1,N6,DMO1P*%
%TO.N,DMO1P*%
X143000000Y-101050000D03*
%TO.P,U1,N7,DCKP*%
%TO.N,DCKP*%
X143000000Y-101850000D03*
%TO.P,U1,N8,DMO2P*%
%TO.N,DMO2P*%
X143000000Y-102650000D03*
%TO.P,U1,N9,DMO4P*%
%TO.N,unconnected-(U1B-DMO4P-PadN9)*%
X143000000Y-103450000D03*
%TO.P,U1,P3,INCK*%
%TO.N,Net-(U1C-INCK)*%
X143800000Y-98650000D03*
%TO.P,U1,P4*%
%TO.N,N/C*%
X143800000Y-99450000D03*
%TO.P,U1,P5,DMO3N*%
%TO.N,unconnected-(U1B-DMO3N-PadP5)*%
X143800000Y-100250000D03*
%TO.P,U1,P6,DMO1N*%
%TO.N,DMO1N*%
X143800000Y-101050000D03*
%TO.P,U1,P7,DCKN*%
%TO.N,DCKN*%
X143800000Y-101850000D03*
%TO.P,U1,P8,DMO2N*%
%TO.N,DMO2N*%
X143800000Y-102650000D03*
%TO.P,U1,P9,DMO4N*%
%TO.N,unconnected-(U1B-DMO4N-PadP9)*%
X143800000Y-103450000D03*
%TD*%
D15*
%TO.N,GND*%
X139600000Y-115800000D03*
X141800000Y-102250000D03*
X142600000Y-115850000D03*
X136975000Y-100650000D03*
X143174999Y-85021823D03*
X132325000Y-90950000D03*
X137375000Y-90900000D03*
X145600000Y-115800000D03*
X135387940Y-102241926D03*
X146275000Y-90800000D03*
X141000000Y-98250000D03*
X141806261Y-97444669D03*
X125575000Y-108450000D03*
X133803990Y-99854653D03*
X146400000Y-96750000D03*
X135550000Y-107500000D03*
X141800000Y-99850000D03*
X141225000Y-90800000D03*
X142600000Y-104650000D03*
X135406169Y-99054082D03*
X136600000Y-115750000D03*
X148590000Y-117000000D03*
X137000000Y-98250000D03*
X122250000Y-115660000D03*
X134337500Y-85162500D03*
X128610000Y-117000000D03*
X135400000Y-103850000D03*
X133850000Y-98150000D03*
X133800000Y-102250000D03*
X137050000Y-103800000D03*
%TO.N,1V2*%
X136700000Y-93450000D03*
X142700000Y-105550000D03*
X135800000Y-93450000D03*
X140987202Y-99847158D03*
X137100000Y-99150000D03*
X136250000Y-102300000D03*
X140999999Y-101449661D03*
X141000000Y-102250000D03*
X135404082Y-104661131D03*
X134950000Y-93500000D03*
%TO.N,1V8*%
X141800000Y-96500000D03*
%TO.N,3V3*%
X132900000Y-103250000D03*
X132850000Y-102350000D03*
X132900000Y-99100000D03*
X132900000Y-101350000D03*
%TO.N,Net-(U1C-VRLST)*%
X135400000Y-100650000D03*
%TO.N,Net-(U1C-VRLFR)*%
X132900000Y-100050000D03*
%TO.N,Net-(U1C-VRHT)*%
X132900000Y-98150000D03*
%TO.N,Net-(U1C-XMASTER)*%
X136996671Y-104646227D03*
%TO.N,Net-(U1C-SLAMODE1)*%
X138960000Y-103600000D03*
%TO.N,Net-(U1C-SLAMODE0)*%
X140850000Y-105650000D03*
%TO.N,SCL_1V8*%
X137795311Y-104654780D03*
%TO.N,DMO2N*%
X144200000Y-103050000D03*
%TO.N,XCLR_1V8*%
X135350000Y-109450000D03*
X139950000Y-106610000D03*
%TO.N,DMO1P*%
X143600000Y-114200000D03*
%TO.N,Net-(U1C-INCK)*%
X144750000Y-98650000D03*
%TO.N,DCKN*%
X138600000Y-114200000D03*
%TO.N,DCKP*%
X137600000Y-114200000D03*
%TO.N,DMO2P*%
X143400000Y-103050000D03*
%TO.N,DMO1N*%
X144600000Y-114200000D03*
%TO.N,SDA_1V8*%
X138600000Y-104650000D03*
%TO.N,LED*%
X134600000Y-116300000D03*
%TO.N,Net-(U1C-XCLR)*%
X140250000Y-104600000D03*
%TD*%
D16*
%TO.N,GND*%
X141400000Y-100250000D02*
X141800000Y-99850000D01*
X134200000Y-101050000D02*
X134200000Y-101850000D01*
D17*
X135400000Y-103850000D02*
X135800000Y-104250000D01*
X134200000Y-98650000D02*
X136600000Y-98650000D01*
D16*
X141400000Y-105050000D02*
X142200000Y-104250000D01*
X142200000Y-101850000D02*
X141800000Y-102250000D01*
X142200000Y-100250000D02*
X141800000Y-99850000D01*
X135800000Y-102650000D02*
X135450000Y-102300000D01*
X142200000Y-103450000D02*
X142200000Y-102650000D01*
D17*
X135450000Y-99100000D02*
X135450000Y-99000000D01*
D16*
X142200000Y-97850000D02*
X142200000Y-98650000D01*
X142200000Y-101050000D02*
X142200000Y-101850000D01*
X142200000Y-97850000D02*
X141850000Y-97500000D01*
X134200000Y-103450000D02*
X134200000Y-102650000D01*
X142200000Y-102650000D02*
X141800000Y-102250000D01*
X141400000Y-102650000D02*
X141800000Y-102250000D01*
X141400000Y-98650000D02*
X141000000Y-98250000D01*
X141400000Y-101050000D02*
X141400000Y-100250000D01*
D17*
X134200000Y-98650000D02*
X134200000Y-99450000D01*
X135450000Y-99000000D02*
X135800000Y-98650000D01*
X134200000Y-99450000D02*
X133800000Y-99850000D01*
D16*
X136600000Y-98650000D02*
X137000000Y-98250000D01*
X134200000Y-102650000D02*
X133800000Y-102250000D01*
D17*
X133850000Y-98300000D02*
X133850000Y-98150000D01*
X136600000Y-104250000D02*
X137050000Y-103800000D01*
D16*
X133800000Y-102250000D02*
X134200000Y-101850000D01*
D17*
X134200000Y-98650000D02*
X133850000Y-98300000D01*
D16*
X141400000Y-101850000D02*
X141800000Y-102250000D01*
X141400000Y-98650000D02*
X143000000Y-98650000D01*
X140600000Y-98650000D02*
X141000000Y-98250000D01*
X135450000Y-102300000D02*
X135400000Y-102300000D01*
X142200000Y-104250000D02*
X142600000Y-104650000D01*
D17*
X135800000Y-99450000D02*
X135450000Y-99100000D01*
%TO.N,1V2*%
X135404082Y-104661131D02*
X135411131Y-104661131D01*
D16*
X140600000Y-102650000D02*
X141000000Y-102250000D01*
X140600000Y-101850000D02*
X140600000Y-101849660D01*
X136900000Y-99150000D02*
X137100000Y-99150000D01*
X140600000Y-101050000D02*
X140600338Y-101050000D01*
D17*
X136600000Y-102650000D02*
X136250000Y-102300000D01*
D16*
X140600000Y-101849660D02*
X140999999Y-101449661D01*
X142200000Y-105050000D02*
X142700000Y-105550000D01*
X140600338Y-101050000D02*
X140999999Y-101449661D01*
D17*
X140600000Y-100250000D02*
X140950000Y-99900000D01*
X135411131Y-104661131D02*
X135800000Y-105050000D01*
D16*
X136600000Y-99450000D02*
X136900000Y-99150000D01*
%TO.N,1V8*%
X141800000Y-96650000D02*
X141800000Y-96500000D01*
X142200000Y-97050000D02*
X141800000Y-96650000D01*
%TO.N,3V3*%
X133100000Y-101350000D02*
X132900000Y-101350000D01*
X133400000Y-101850000D02*
X132900000Y-101350000D01*
X133050000Y-99100000D02*
X132900000Y-99100000D01*
X133400000Y-101050000D02*
X133100000Y-101350000D01*
X133400000Y-99450000D02*
X133050000Y-99100000D01*
X133100000Y-103450000D02*
X132900000Y-103250000D01*
X133100000Y-102350000D02*
X132850000Y-102350000D01*
X133400000Y-102650000D02*
X133100000Y-102350000D01*
X133400000Y-103450000D02*
X133100000Y-103450000D01*
D17*
%TO.N,Net-(U1C-VRLST)*%
X135398000Y-100648000D02*
X135400000Y-100650000D01*
X134200000Y-100250000D02*
X134598000Y-100648000D01*
X134598000Y-100648000D02*
X135398000Y-100648000D01*
D16*
%TO.N,Net-(U1C-VRLFR)*%
X133100000Y-100250000D02*
X132900000Y-100050000D01*
X133400000Y-100250000D02*
X133100000Y-100250000D01*
%TO.N,Net-(U1C-VRHT)*%
X133400000Y-98650000D02*
X132900000Y-98150000D01*
D17*
%TO.N,Net-(U1C-XMASTER)*%
X137400000Y-105050000D02*
X137050000Y-104700000D01*
X137050000Y-104700000D02*
X137000000Y-104700000D01*
D16*
%TO.N,Net-(U1C-SLAMODE1)*%
X138960000Y-103600000D02*
X139150000Y-103600000D01*
X139150000Y-103600000D02*
X139800000Y-104250000D01*
%TO.N,Net-(U1C-SLAMODE0)*%
X140600000Y-105400000D02*
X140850000Y-105650000D01*
X140600000Y-105050000D02*
X140600000Y-105400000D01*
D17*
%TO.N,SCL_1V8*%
X138200000Y-104250000D02*
X137850000Y-104600000D01*
X137850000Y-104600000D02*
X137800000Y-104600000D01*
%TO.N,DMO2N*%
X143800000Y-102650000D02*
X144200000Y-103050000D01*
%TO.N,XCLR_1V8*%
X135350000Y-109450000D02*
X137200000Y-109450000D01*
X137200000Y-109450000D02*
X139950000Y-106700000D01*
X139950000Y-106700000D02*
X139950000Y-106610000D01*
D18*
%TO.N,DMO1P*%
X143960300Y-113925000D02*
X143685300Y-114200000D01*
X145331928Y-101350000D02*
X146560300Y-102578372D01*
X143000000Y-101050000D02*
X143400000Y-101450000D01*
X143685300Y-114200000D02*
X143600000Y-114200000D01*
X147239700Y-106831633D02*
X147100000Y-106831633D01*
X147100000Y-106111033D02*
X147239700Y-106111033D01*
X146560300Y-109917134D02*
X143960300Y-112517134D01*
X146560300Y-102578372D02*
X146560300Y-105571333D01*
X144300000Y-101350000D02*
X145331928Y-101350000D01*
X144200000Y-101450000D02*
X144300000Y-101350000D01*
X143960300Y-112517134D02*
X143960300Y-113925000D01*
X143400000Y-101450000D02*
X144200000Y-101450000D01*
X146560300Y-107371333D02*
X146560300Y-109917134D01*
X147500000Y-106371333D02*
X147500000Y-106571333D01*
X146560300Y-105571333D02*
G75*
G03*
X147100000Y-106111000I539700J33D01*
G01*
X147500000Y-106571333D02*
G75*
G02*
X147239700Y-106831600I-260300J33D01*
G01*
X147100000Y-106831633D02*
G75*
G03*
X146560333Y-107371333I0J-539667D01*
G01*
X147239700Y-106111033D02*
G75*
G02*
X147499967Y-106371333I0J-260267D01*
G01*
D16*
%TO.N,Net-(U1C-INCK)*%
X143800000Y-98650000D02*
X144750000Y-98650000D01*
D18*
%TO.N,DCKN*%
X138239700Y-111407866D02*
X138239700Y-111905619D01*
X144597566Y-101850000D02*
X145339700Y-102592134D01*
X138239700Y-112855619D02*
X138239700Y-113533598D01*
X143800000Y-101850000D02*
X144597566Y-101850000D01*
X138239700Y-113839700D02*
X138600000Y-114200000D01*
X138239700Y-113533598D02*
X138239700Y-113750000D01*
X138589700Y-112255619D02*
X138589700Y-112505619D01*
X143010300Y-108989700D02*
X140657866Y-108989700D01*
X140657866Y-108989700D02*
X138239700Y-111407866D01*
X145339700Y-106660300D02*
X143010300Y-108989700D01*
X138239700Y-113750000D02*
X138239700Y-113839700D01*
X138239700Y-113750000D02*
X138239700Y-113800000D01*
X145339700Y-102592134D02*
X145339700Y-106660300D01*
X138239700Y-111905619D02*
G75*
G03*
X138414700Y-112080600I175000J19D01*
G01*
X138414700Y-112080619D02*
G75*
G02*
X138589681Y-112255619I0J-174981D01*
G01*
X138414700Y-112680619D02*
G75*
G03*
X138239719Y-112855619I0J-174981D01*
G01*
X138589700Y-112505619D02*
G75*
G02*
X138414700Y-112680600I-175000J19D01*
G01*
%TO.N,DCKP*%
X137960300Y-111292134D02*
X140542134Y-108710300D01*
X143400000Y-102250000D02*
X143000000Y-101850000D01*
X137600000Y-114200000D02*
X137960300Y-113839700D01*
X145060300Y-106539700D02*
X145060300Y-102707866D01*
X142889700Y-108710300D02*
X145060300Y-106539700D01*
X144602434Y-102250000D02*
X143400000Y-102250000D01*
X145060300Y-102707866D02*
X144602434Y-102250000D01*
X137960300Y-113839700D02*
X137960300Y-111292134D01*
X140542134Y-108710300D02*
X142889700Y-108710300D01*
D17*
%TO.N,DMO2P*%
X143000000Y-102650000D02*
X143400000Y-103050000D01*
D18*
%TO.N,DMO1N*%
X144600000Y-114200000D02*
X144514700Y-114200000D01*
X144514700Y-114200000D02*
X144239700Y-113925000D01*
X145212589Y-111659974D02*
X145325728Y-111546837D01*
X145099452Y-112395366D02*
X145212589Y-112282228D01*
X144239700Y-112632866D02*
X144477200Y-112395366D01*
X143800000Y-101050000D02*
X145468072Y-101050000D01*
X147779400Y-106371333D02*
X147779400Y-106571333D01*
X145785348Y-111087218D02*
X145822948Y-111049618D01*
X147239700Y-107111033D02*
X147100000Y-107111033D01*
X146839700Y-102421628D02*
X146839700Y-105571333D01*
X147100000Y-105831633D02*
X147239700Y-105831633D01*
X145325728Y-111546837D02*
X145785348Y-111087218D01*
X144239700Y-113925000D02*
X144239700Y-112632866D01*
X146839700Y-110032866D02*
X145822948Y-111049618D01*
X146839700Y-107371333D02*
X146839700Y-110032866D01*
X145468072Y-101050000D02*
X146839700Y-102421628D01*
X144788326Y-112395366D02*
G75*
G03*
X145099452Y-112395366I155563J155564D01*
G01*
X145212589Y-112282228D02*
G75*
G03*
X145212554Y-111971136I-155589J155528D01*
G01*
X144477200Y-112395366D02*
G75*
G02*
X144788326Y-112395366I155563J-155564D01*
G01*
X146839700Y-105571333D02*
G75*
G03*
X147100000Y-105831600I260300J33D01*
G01*
X147239700Y-105831633D02*
G75*
G02*
X147779367Y-106371333I0J-539667D01*
G01*
X145212589Y-111971101D02*
G75*
G02*
X145212551Y-111659937I155611J155601D01*
G01*
X147779400Y-106571333D02*
G75*
G02*
X147239700Y-107111000I-539700J33D01*
G01*
X147100000Y-107111033D02*
G75*
G03*
X146839733Y-107371333I0J-260267D01*
G01*
D17*
%TO.N,SDA_1V8*%
X139000000Y-104250000D02*
X138600000Y-104650000D01*
%TO.N,Net-(D1-A)*%
X123600000Y-115990000D02*
X123495000Y-115990000D01*
X123495000Y-115990000D02*
X122250000Y-117235000D01*
%TO.N,LED*%
X123600000Y-117010000D02*
X124190000Y-117010000D01*
X126300000Y-114900000D02*
X129950000Y-114900000D01*
X124190000Y-117010000D02*
X126300000Y-114900000D01*
X129950000Y-114900000D02*
X131350000Y-116300000D01*
X131350000Y-116300000D02*
X134600000Y-116300000D01*
D16*
%TO.N,Net-(U1C-XCLR)*%
X140600000Y-104250000D02*
X140250000Y-104600000D01*
%TD*%
M02*
